<svg width="256" height="256" viewBox="0 0 67.733335 67.733335" xmlns="http://www.w3.org/2000/svg"><g transform="translate(0,7.8000169)"><path style="fill:#5865f2;fill-opacity:1;stroke-width:0.132291" d="M 0,26.06665 V -7.8000169 H 33.866664 67.733335 V 26.06665 59.933318 H 33.866664 0 Z m 22.584699,17.627864 c 1.166927,-1.808537 1.624678,-2.610955 1.624678,-2.847977 0,-0.107218 -0.384011,-0.34844 -0.892969,-0.560938 -0.887273,-0.370447 -2.714082,-1.264878 -3.056131,-1.496325 -0.138256,-0.09355 -0.07689,-0.198693 0.270687,-0.463802 l 0.449471,-0.342829 1.666893,0.651149 c 3.374649,1.318267 6.574353,1.968438 10.238465,2.080434 4.522528,0.138228 8.788453,-0.6336 12.720322,-2.301469 l 1.089971,-0.462358 0.390431,0.308907 c 0.214735,0.169897 0.37528,0.364995 0.356764,0.433553 -0.04245,0.157151 -1.978749,1.146513 -3.158649,1.613929 -0.491129,0.19456 -0.892969,0.412871 -0.892969,0.485133 0,0.194182 1.933723,3.390082 2.374696,3.924705 l 0.379313,0.459871 0.971174,-0.308263 c 3.691919,-1.171866 8.158259,-3.379942 11.171369,-5.522917 l 0.807495,-0.574298 0.08454,-0.895153 c 0.133755,-1.416338 0.10018,-6.222872 -0.05398,-7.727232 -0.68746,-6.708498 -2.950205,-12.96736 -6.83384,-18.902741 L 51.55398,10.117324 50.40534,9.6334299 C 47.775695,8.5256259 43.552255,7.2894454 41.642684,7.0686424 l -0.756796,-0.087508 -0.632269,1.331787 c -0.446095,0.939642 -0.690698,1.3167265 -0.830704,1.2806415 -1.428483,-0.3681745 -7.596476,-0.470517 -9.984851,-0.165673 l -1.31974,0.168448 -0.64406,-1.2898435 C 26.70317,6.7622499 26.888484,6.8079909 24.077084,7.4679504 21.78073,8.0070059 20.094017,8.5361674 17.822626,9.4301259 l -1.690398,0.6652941 -1.03668,1.668744 C 11.76733,17.121583 9.733312,22.461105 8.852816,28.152018 8.5423385,30.158743 8.357392,35.581577 8.5291235,37.643181 l 0.094451,1.133865 0.9468075,0.66812 c 1.925914,1.359024 4.882015,2.999935 7.362953,4.08712 1.363542,0.597522 4.105604,1.569593 4.450475,1.577704 0.217887,0.0051 0.495125,-0.321653 1.200889,-1.415476 z m 1.667563,-10.939129 c -2.387881,-0.746647 -3.848629,-3.554215 -3.170349,-6.093422 0.562951,-2.107447 2.131057,-3.479878 4.119649,-3.605578 3.136977,-0.198289 5.410748,3.029698 4.501128,6.390087 -0.669542,2.473509 -3.203102,4.011609 -5.450428,3.308913 z m 16.95659,0.01338 c -0.885457,-0.293418 -1.303233,-0.563647 -1.964717,-1.270829 -0.878074,-0.938729 -1.309196,-1.934204 -1.381947,-3.190949 -0.177173,-3.060529 2.036007,-5.472262 4.816893,-5.24904 1.588254,0.127489 2.899538,1.099511 3.666076,2.717569 0.384753,0.812167 0.419918,0.997305 0.419613,2.209365 -2.22e-4,1.204695 -0.0369,1.399757 -0.409384,2.182811 -0.769405,1.617422 -2.181816,2.629829 -3.805207,2.727535 -0.458115,0.02757 -1.04284,-0.02756 -1.341327,-0.126464 z"/>
<path style="fill:#000000;stroke-width:0.352778"/></g></svg>
