<svg xmlns="http://www.w3.org/2000/svg" viewBox="0 0 122.88 113.38" fill="#0d6efd"><path d="M34.64,20.09h53.6A13.77,13.77,0,0,1,98,24.16h0a13.79,13.79,0,0,1,4.06,9.77V79.46A13.86,13.86,0,0,1,88.24,93.28H34.64A13.86,13.86,0,0,1,20.81,79.46V33.92a13.76,13.76,0,0,1,4.06-9.75l0,0a13.79,13.79,0,0,1,9.75-4.05ZM59.71,40.7v-.06a5.08,5.08,0,0,1,.39-2A4.94,4.94,0,0,1,61.25,37a5.33,5.33,0,0,1,1.67-1.14A5,5,0,0,1,68.46,37a5,5,0,0,1,1.13,1.68,5.35,5.35,0,0,1,.38,2v.08a5.12,5.12,0,0,1-.38,1.94,5.43,5.43,0,0,1-2.77,2.86,5,5,0,0,1-1.91.38h-.09a5.16,5.16,0,0,1-1.94-.38,5.43,5.43,0,0,1-2.79-2.84,5.26,5.26,0,0,1-.38-2v0Zm3.84,31.58A9.44,9.44,0,0,0,64.92,71a22.09,22.09,0,0,0,1.64-2.11c.57-.8,1.16-1.73,1.78-2.76a.23.23,0,0,1,.2-.11.24.24,0,0,1,.12,0l2.09,1.56a.22.22,0,0,1,.1.18.18.18,0,0,1,0,.13,36.76,36.76,0,0,1-2.92,4.39,19.37,19.37,0,0,1-3,3.12h0a11.58,11.58,0,0,1-3.14,1.86,8.94,8.94,0,0,1-3.31.64h-.15a8.78,8.78,0,0,1-2.44-.35,5,5,0,0,1-1.92-1.06c-2.77-2.52-.66-8.57.28-12.44l2.32-7a15.62,15.62,0,0,0,.58-2.43,1.7,1.7,0,0,0-1.84-2.17h-3A.23.23,0,0,1,52,52.2v-.08l.78-2.83a.24.24,0,0,1,.23-.17l15.1-.48h0a.24.24,0,0,1,.24.23V49l-6,17.56a12.12,12.12,0,0,0-.83,4.08c0,1.25.59,2.92,2,1.69Zm45.72-11.37V68.3a1.39,1.39,0,0,0,1.38,1.38H121.5a1.39,1.39,0,0,0,1.38-1.38V60.91a1.38,1.38,0,0,0-1.38-1.38H110.65a1.38,1.38,0,0,0-1.38,1.38Zm0-16.95v7.38a1.38,1.38,0,0,0,1.38,1.38H121.5a1.38,1.38,0,0,0,1.38-1.38V44a1.38,1.38,0,0,0-1.38-1.38H110.65A1.38,1.38,0,0,0,109.27,44Zm0,33.91v7.38a1.38,1.38,0,0,0,1.38,1.38H121.5a1.38,1.38,0,0,0,1.38-1.38V77.87a1.38,1.38,0,0,0-1.38-1.38H110.65a1.38,1.38,0,0,0-1.38,1.38Zm0-50.87v7.39a1.38,1.38,0,0,0,1.38,1.38H121.5a1.38,1.38,0,0,0,1.38-1.38V27a1.39,1.39,0,0,0-1.38-1.38H110.65A1.39,1.39,0,0,0,109.27,27ZM13.61,60.91V68.3a1.39,1.39,0,0,1-1.38,1.38H1.38A1.39,1.39,0,0,1,0,68.3V60.91a1.38,1.38,0,0,1,1.38-1.38H12.23a1.38,1.38,0,0,1,1.38,1.38Zm0-16.95v7.38a1.38,1.38,0,0,1-1.38,1.38H1.38A1.38,1.38,0,0,1,0,51.34V44a1.38,1.38,0,0,1,1.38-1.38H12.23A1.38,1.38,0,0,1,13.61,44Zm0,33.91v7.38a1.38,1.38,0,0,1-1.38,1.38H1.38A1.38,1.38,0,0,1,0,85.25V77.87a1.38,1.38,0,0,1,1.38-1.38H12.23a1.38,1.38,0,0,1,1.38,1.38Zm0-50.87v7.39a1.38,1.38,0,0,1-1.38,1.38H1.38A1.38,1.38,0,0,1,0,34.39V27a1.39,1.39,0,0,1,1.38-1.38H12.23A1.39,1.39,0,0,1,13.61,27ZM83.18,99.77h7.38a1.38,1.38,0,0,1,1.38,1.38V112a1.38,1.38,0,0,1-1.38,1.38H83.18A1.38,1.38,0,0,1,81.8,112V101.15a1.38,1.38,0,0,1,1.38-1.38Zm-17,0h7.39A1.38,1.38,0,0,1,75,101.15V112a1.38,1.38,0,0,1-1.38,1.38H66.22A1.39,1.39,0,0,1,64.84,112V101.15a1.39,1.39,0,0,1,1.38-1.38Zm-16.95,0h7.38A1.39,1.39,0,0,1,58,101.15V112a1.39,1.39,0,0,1-1.39,1.38H49.27A1.38,1.38,0,0,1,47.89,112V101.15a1.38,1.38,0,0,1,1.38-1.38Zm-17,0H39.7a1.38,1.38,0,0,1,1.38,1.38V112a1.38,1.38,0,0,1-1.38,1.38H32.32A1.38,1.38,0,0,1,30.94,112V101.15a1.38,1.38,0,0,1,1.38-1.38ZM83.18,0h7.38a1.38,1.38,0,0,1,1.38,1.38V12.23a1.38,1.38,0,0,1-1.38,1.38H83.18a1.38,1.38,0,0,1-1.38-1.38V1.38A1.38,1.38,0,0,1,83.18,0Zm-17,0h7.39A1.38,1.38,0,0,1,75,1.38V12.23a1.38,1.38,0,0,1-1.38,1.38H66.22a1.39,1.39,0,0,1-1.38-1.38V1.38A1.39,1.39,0,0,1,66.22,0ZM49.27,0h7.38A1.39,1.39,0,0,1,58,1.38V12.23a1.39,1.39,0,0,1-1.39,1.38H49.27a1.38,1.38,0,0,1-1.38-1.38V1.38A1.38,1.38,0,0,1,49.27,0Zm-17,0H39.7a1.38,1.38,0,0,1,1.38,1.38V12.23a1.38,1.38,0,0,1-1.38,1.38H32.32a1.38,1.38,0,0,1-1.38-1.38V1.38A1.38,1.38,0,0,1,32.32,0ZM88.24,27H34.64a6.85,6.85,0,0,0-4.86,2h0a6.85,6.85,0,0,0-2,4.86V79.46a6.93,6.93,0,0,0,6.89,6.88h53.6a6.93,6.93,0,0,0,6.89-6.88V33.92a6.88,6.88,0,0,0-2-4.86h0a6.85,6.85,0,0,0-4.86-2Z"/></svg>
