<svg width="512" height="512" viewBox="0 0 512 512" xmlns="http://www.w3.org/2000/svg" style="background-color:transparent;" fill="#ffffff">
<g transform="matrix(1.3333333,0,0,-1.3333333,0,202.64)">
<g transform="matrix(0.26538464,0,0,0.26538464,14.278304,-242.611)">
<path d="M 739.008,1466.95 H 600.336 c -10.047,0 -18.383,-8.18 -18.563,-18.22 l 9.743,-141.75 c 0.007,-10.6 8.339,-18.92 18.578,-18.92 H 729.25 c 10.238,0 18.566,8.32 18.566,18.56 l 0.039,1.2 9.735,141.37 c -0.195,9.58 -8.531,17.76 -18.582,17.76" style="fill:#f57c2b;fill-opacity:1;fill-rule:nonzero;stroke:none"/>
<path d="m 729.254,739.156 h -119.16 c -10.235,0 -18.571,-8.332 -18.571,-18.574 l -0.039,-1.191 -9.722,-141.364 c 0.191,-9.589 8.523,-17.761 18.57,-17.761 h 138.684 c 10.047,0 18.379,8.172 18.558,18.218 l -9.746,141.739 c -0.004,10.601 -8.34,18.933 -18.574,18.933" style="fill:#f57c2b;fill-opacity:1;fill-rule:nonzero;stroke:none"/>
<path d="m 1103.48,1103.05 -138.878,-9.74 c -10.606,-0.02 -18.934,-8.35 -18.934,-18.58 V 952.488 c 0,-10.234 8.328,-18.566 18.555,-18.566 l 1.242,-0.039 138.275,-9.731 c 9.57,0.196 17.74,8.532 17.74,18.578 v 141.75 c 0,9.99 -8.06,18.26 -18,18.57" style="fill:#76cc67;fill-opacity:1;fill-rule:nonzero;stroke:none"/>
<path d="m 235.609,1103.06 c -9.574,-0.19 -17.742,-8.53 -17.742,-18.58 V 942.73 c 0,-10.046 8.168,-18.382 18.211,-18.562 l 138.664,9.738 c 10.61,0.016 18.934,8.348 18.934,18.582 v 122.242 c 0,10.23 -8.324,18.56 -18.559,18.56 l -1.234,0.04 -138.274,9.73" style="fill:#76cc67;fill-opacity:1;fill-rule:nonzero;stroke:none"/>
<path d="m 905.871,1165.54 c 6.992,-7 19.258,-7 26.258,0 l 0.871,0.82 106.84,93.09 c 3.01,3.14 4.84,7.71 4.84,12.56 0,4.97 -1.92,9.64 -5.42,13.12 l -98.053,98.07 c -7.113,7.1 -18.785,7.21 -26.019,0.25 l -93.333,-107.12 c -3.746,-3.76 -5.664,-8.43 -5.664,-13.39 0,-4.97 1.918,-9.64 5.426,-13.14 l 84.254,-84.26" style="fill:#6d78c4;fill-opacity:1;fill-rule:nonzero;stroke:none"/>
<path d="m 433.477,861.676 c -3.618,3.617 -8.368,5.426 -13.125,5.426 -4.762,0 -9.512,-1.809 -13.129,-5.434 l -0.86,-0.797 -106.859,-93.105 c -3.008,-3.141 -4.84,-7.711 -4.84,-12.555 0,-4.981 1.918,-9.637 5.414,-13.125 l 98.059,-98.066 c 7.117,-7.11 18.793,-7.227 26.015,-0.25 l 93.328,107.121 c 7.485,7.5 7.497,19.285 0.258,26.515 l -84.261,84.27" style="fill:#6d78c4;fill-opacity:1;fill-rule:nonzero;stroke:none"/>
<path d="m 934.309,861.668 c -3.438,3.437 -8.282,5.156 -13.133,5.156 -4.848,0 -9.692,-1.719 -13.129,-5.156 L 821.613,775.23 c -7.238,-7.238 -7.238,-19.007 0,-26.253 l 0.825,-0.883 90.906,-104.676 c 6.914,-6.609 18.582,-6.508 25.691,0.602 l 100.235,100.23 c 3.49,3.496 5.42,8.164 5.42,13.129 0,4.844 -1.84,9.414 -5.17,12.871 l -105.211,91.418" style="fill:#df1b2f;fill-opacity:1;fill-rule:nonzero;stroke:none"/>
<path d="m 405.035,1165.55 c 6.875,-6.88 19.399,-6.88 26.266,0 l 86.433,86.43 c 7.239,7.24 7.239,19.02 0,26.26 l -0.824,0.89 L 426,1383.8 c -3.367,3.22 -7.859,4.84 -12.41,4.84 -4.785,0 -9.637,-1.8 -13.274,-5.44 L 300.078,1282.96 c -3.496,-3.49 -5.426,-8.16 -5.426,-13.12 0,-4.85 1.844,-9.42 5.172,-12.88 l 105.211,-91.41" style="fill:#df1b2f;fill-opacity:1;fill-rule:nonzero;stroke:none"/>
<path d="m 791.07,1013.61 c 0,-70.458 -57.113,-127.567 -127.57,-127.567 -70.453,0 -127.57,57.109 -127.57,127.567 0,70.46 57.117,127.57 127.57,127.57 70.457,0 127.57,-57.11 127.57,-127.57" style="fill:#3a2665;fill-opacity:1;fill-rule:nonzero;stroke:none"/>
<path d="M 284.563,378.461 V 144.73 c 0,-3.96 -3.211,-7.171 -7.176,-7.171 h -17.922 c -3.961,0 -7.168,3.211 -7.168,7.171 v 211 L 188.031,197.82 c -2.203,-5.398 -7.449,-8.929 -13.273,-8.929 h -9.18 c -5.836,0 -11.086,3.531 -13.277,8.929 L 88.0391,355.73 V 145.082 c 0,-3.961 -3.2188,-7.172 -7.1758,-7.172 H 62.9414 c -3.9609,0 -7.168,3.211 -7.168,7.172 v 233.379 c 0,7.918 6.4141,14.34 14.3399,14.34 H 95.293 c 5.84,0 11.098,-3.539 13.293,-8.949 l 61.613,-151.372 61.617,151.372 c 2.192,5.41 7.446,8.949 13.286,8.949 h 25.117 c 7.922,0 14.344,-6.422 14.344,-14.34" style="fill:#3a2665;fill-opacity:1;fill-rule:nonzero;stroke:none"/>
<path d="m 1098.09,137.551 h -16.97 c -4.23,0 -7.65,3.429 -7.65,7.648 v 165.039 c 0,4.223 3.42,7.641 7.65,7.641 h 16.97 c 4.22,0 7.65,-3.418 7.65,-7.641 V 145.199 c 0,-4.219 -3.43,-7.648 -7.65,-7.648" style="fill:#3a2665;fill-opacity:1;fill-rule:nonzero;stroke:none"/>
<path d="m 1098.11,339.93 h -17.02 c -4.22,0 -7.64,3.429 -7.64,7.64 v 17.02 c 0,4.219 3.42,7.64 7.64,7.64 h 17.02 c 4.22,0 7.64,-3.421 7.64,-7.64 v -17.02 c 0,-4.211 -3.42,-7.64 -7.64,-7.64" style="fill:#3a2665;fill-opacity:1;fill-rule:nonzero;stroke:none"/>
<path d="m 1033.27,155.051 -0.65,-13.41 c -0.21,-3.942 -3.58,-6.961 -7.52,-6.809 -21.88,0.797 -48.108,-0.172 -63.459,18.418 -8.231,9.969 -10.192,24.488 -11.286,36.898 -0.906,10.313 -0.617,20.723 -0.617,31.051 v 143.403 0.449 c 0,3.949 3.231,7.179 7.172,7.179 h 17.926 c 3.937,0 7.168,-3.23 7.168,-7.179 v -47.172 h 39.286 c 3.95,0 7.18,-3.231 7.18,-7.168 v -13.41 c 0,-3.942 -3.23,-7.172 -7.18,-7.172 h -39.286 c 0,0 0,-84.391 0.07,-84.391 0.071,-14.476 2.078,-24.738 6.102,-30.609 4.441,-6.957 15.764,-11.051 33.904,-12.34 2.48,-0.18 5.24,-0.039 7.53,-1.269 2.37,-1.258 3.82,-3.79 3.66,-6.469" style="fill:#3a2665;fill-opacity:1;fill-rule:nonzero;stroke:none"/>
<path d="m 542.805,339.93 h -17.012 c -4.227,0 -7.648,3.429 -7.648,7.64 v 17.02 c 0,4.219 3.421,7.64 7.648,7.64 h 17.012 c 4.222,0 7.644,-3.421 7.644,-7.64 v -17.02 c 0,-4.211 -3.422,-7.64 -7.644,-7.64" style="fill:#3a2665;fill-opacity:1;fill-rule:nonzero;stroke:none"/>
<path d="m 452.563,313.289 c -10.059,6.582 -22.188,8.699 -33.997,9.18 -18.769,0.75 -37.695,-1.309 -56.164,-4.528 -6.605,-1.152 -12.992,-2.562 -19.613,-4.441 -3.871,-0.859 -6.309,-4.66 -5.519,-8.531 l 2.793,-13.117 c 0.859,-3.883 4.667,-6.313 8.542,-5.52 9.036,1.848 17.997,4.066 27.094,5.598 15.274,2.558 33.864,4.652 48.949,0.14 4.516,-1.351 8.457,-4.019 10.997,-8.039 3.066,-4.859 2.668,-11.101 2.617,-16.621 -0.024,-3.211 -0.395,-24.461 -0.395,-24.461 -8.394,0.93 -20.793,1.43 -37.285,1.43 -25.816,0 -44.453,-3.438 -55.922,-10.399 -13.625,-8.378 -20.441,-22.718 -20.441,-43.011 0,-17.707 4.594,-31.699 13.769,-41.949 9.18,-10.25 26.028,-15.411 50.407,-15.411 29.394,0 51.835,3.743 67.398,11.121 4.078,1.719 8.094,4.872 10.469,8.668 2.722,4.454 3.508,9.684 3.508,14.633 v 93.918 c 0,17.43 -0.938,40.731 -17.207,51.34 M 437.867,183.441 c 0,-5.23 -0.504,-9.32 -1.437,-12.191 -1.215,-2.648 -3.508,-4.66 -6.817,-6.09 -8.886,-3.59 -21.144,-5.379 -36.922,-5.379 -14.339,0 -24.16,2.731 -29.39,8.098 -5.313,5.383 -7.891,13.262 -7.891,23.812 0,10.25 2.867,17.2 8.606,20.789 6.668,4.52 20.078,6.809 40.148,6.809 11.906,0 23.16,-0.5 33.703,-1.43 v -34.418" style="fill:#3a2665;fill-opacity:1;fill-rule:nonzero;stroke:none"/>
<path d="m 733.996,168.602 c -16.949,-3.282 -33.836,-7 -51.187,-7.024 h -0.215 c -18.356,0 -31.985,3.871 -40.66,11.684 -8.746,7.75 -13.192,22.726 -13.481,44.957 h 108.27 c 3.156,0 5.664,0.711 7.527,2.152 1.938,1.649 2.863,5.367 2.863,11.109 0,12.192 -0.355,22.301 -1.074,30.329 -0.715,7.953 -2.363,16.132 -5.012,24.523 -2.586,8.387 -6.386,14.906 -11.261,19.719 -4.946,4.801 -11.688,8.668 -20.289,11.687 -8.602,2.934 -19.075,4.434 -31.551,4.434 -27.672,0 -48.399,-7.453 -62.016,-22.363 -13.625,-14.989 -20.441,-39.149 -20.441,-72.629 0,-32.981 6.312,-56.789 19.008,-71.559 12.687,-14.699 34.199,-22.012 64.527,-22.012 20.324,0 40.941,2.532 60.23,7.743 3.954,1.07 6.45,4.519 5.731,8.386 l -2.578,13.192 c -0.715,3.879 -4.516,6.39 -8.391,5.672 m -93.711,113.429 c 7.168,8.598 19.145,12.899 35.848,12.899 15.562,0 26.105,-3.43 31.769,-10.391 5.59,-6.957 8.383,-17.707 8.383,-32.258 0,-3.801 -0.074,-6.609 -0.355,-8.261 h -87.11 c 0.493,16.71 4.297,29.402 11.465,38.011" style="fill:#3a2665;fill-opacity:1;fill-rule:nonzero;stroke:none"/>
<path d="M 550.449,310.711 V 124.289 c 0,-19.508 -3.988,-41.3671 -19.941,-54.3671 -13.93,-11.3633 -33.113,-14.0821 -50.395,-15.9727 -3.941,-0.4297 -7.461,2.4414 -7.89,6.3789 l -1.43,13.3438 c -0.148,1.3672 0.066,2.6484 0.645,3.8086 1.105,2.289 3.058,3.2578 5.457,3.7187 12.386,2.4102 28.566,4.6602 35.882,16.3828 4.778,7.656 5.407,17.59 5.407,26.348 v 186.781 c 0,3.937 3.226,7.168 7.168,7.168 h 17.925 c 3.942,0 7.172,-3.231 7.172,-7.168" style="fill:#3a2665;fill-opacity:1;fill-rule:nonzero;stroke:none"/>
<path d="m 1283.53,147.129 c 0.49,-3.481 -2.83,-5 -5.84,-6 -7.77,-2.527 -16.11,-3.899 -24.16,-5.188 -10.24,-1.652 -20.89,-2.921 -31.26,-2.261 -24.1,0.57 -42.24,7.449 -54.5,20.582 -12.76,13.699 -19.14,37.277 -19.14,70.769 0,33.91 6.38,58.649 19.14,74.071 11.05,13.25 28.54,20.777 52.49,22.578 18.6,1.39 36.08,-1 54.13,-5.11 2.72,-0.621 4.37,-1.32 5.73,-3.422 0.94,-1.507 1.29,-3.296 0.94,-5.168 l -2.66,-13.191 c -0.77,-3.879 -4.55,-6.379 -8.42,-5.59 0,0 -5.62,1.133 -5.7,1.141 -21.62,4.371 -59.06,9.941 -72.99,-12.981 -6.67,-10.961 -10.03,-27.379 -10.03,-49.097 0,-22.742 3.29,-39.512 9.81,-50.34 6.61,-10.902 19.08,-16.352 37.5,-16.352 12.37,0 24.89,1.102 36.93,3.95 5.52,1.21 8.75,1.789 9.68,1.789 2.82,0 4.6,-1.59 5.2,-4.168 0,0 3.1,-15.68 3.15,-16.012" style="fill:#3a2665;fill-opacity:1;fill-rule:nonzero;stroke:none"/>
<path d="m 911.523,187.531 c 0,-15.543 -5.132,-31.199 -17.918,-40.801 -17.734,-13.308 -42.785,-13.98 -63.972,-12.55 -14.051,0.949 -27.735,3.679 -41.262,7.519 -2.926,0.832 -6.629,1.43 -8.703,3.883 -1.578,1.867 -2.152,4.449 -1.363,6.887 l 4.156,12.769 c 1.227,3.782 5.312,5.801 9.039,4.582 0,0 2.617,-0.699 4.078,-1.148 14.207,-4.363 28.938,-6.902 43.789,-7.641 11.903,-0.59 26.68,-0.25 35.246,9.508 6.793,7.742 8.516,22.402 0.344,29.75 -3.59,3.223 -11.402,6.602 -23.305,10.18 -25.734,7.312 -58.808,12.441 -67.179,42.371 -5.942,21.269 0.257,47.699 20.152,59.422 13.98,8.207 30.406,10.629 46.395,10.359 16.558,-0.269 33.339,-2.641 49.101,-7.762 2.867,-0.929 4.66,-3.429 4.953,-6.168 0,-0.98 -0.078,-1.91 -0.367,-2.859 l -4.156,-12.773 c -1.203,-3.707 -5.199,-5.86 -8.906,-4.618 -8.68,2.899 -17.665,4.848 -26.731,6.02 -12.945,1.68 -28.859,3.43 -40.484,-4.27 -8.239,-5.461 -12.145,-16.992 -9.184,-26.382 3.543,-11.227 17.063,-15.071 27.09,-18.2 0,0 24.695,-7.519 24.73,-7.539 25.747,-7.832 44.457,-21.129 44.457,-50.539" style="fill:#3a2665;fill-opacity:1;fill-rule:nonzero;stroke:none"/>
</g>
</g>
</svg>
