<svg width="512" height="512" viewBox="0 0 512 512" xmlns="http://www.w3.org/2000/svg">
<g transform="matrix(1.3333333,0,0,-1.3333333,0,202.64)">
<rect style="fill:#480866;stroke-width:0.75;paint-order:stroke fill markers;stop-color:#000000;fill-opacity:1" width="384" height="384" x="1.3533387" y="-151.67897" transform="scale(1,-1)" rx="18.75" ry="18.75"/>
<path d="m 207.4446,99.172007 h -29.58833 c -2.14372,0 -3.92237,-1.74537 -3.96078,-3.88759 l 2.07886,-30.245073 c 0.002,-2.261715 1.77929,-4.036947 3.96397,-4.036947 h 25.42421 c 2.18448,0 3.96141,1.775232 3.96141,3.960133 l 0.008,0.256041 2.07715,30.163996 c -0.0416,2.04407 -1.82025,3.78944 -3.96482,3.78944" style="fill:#f57c2b;fill-opacity:1;fill-rule:nonzero;stroke:none;stroke-width:0.213369"/>
<path d="m 205.36339,-56.116774 h -25.42507 c -2.18383,0 -3.96248,-1.777792 -3.96248,-3.963118 l -0.008,-0.254123 -2.07437,-30.162715 c 0.0408,-2.045996 1.81855,-3.789648 3.96227,-3.789648 h 29.59052 c 2.14372,0 3.92151,1.743652 3.95971,3.887158 l -2.0795,30.242728 c -8e-4,2.261926 -1.7795,4.039718 -3.96312,4.039718" style="fill:#f57c2b;fill-opacity:1;fill-rule:nonzero;stroke:none;stroke-width:0.213369"/>
<path d="m 285.21167,21.526974 -29.63228,-2.078215 c -2.26299,-0.0043 -4.03993,-1.781633 -4.03993,-3.964399 v -26.08267 c 0,-2.183619 1.77694,-3.961411 3.95906,-3.961411 l 0.26501,-0.0083 29.50362,-2.076295 c 2.04194,0.04182 3.78516,1.820465 3.78516,3.963972 v 30.245073 c 0,2.131558 -1.71975,3.89612 -3.84064,3.962265" style="fill:#76cc67;fill-opacity:1;fill-rule:nonzero;stroke:none;stroke-width:0.213369"/>
<path d="m 100.03478,21.529107 c -2.042793,-0.04054 -3.785592,-1.820038 -3.785592,-3.964398 v -30.245075 c 0,-2.143506 1.742799,-3.922151 3.885662,-3.960558 l 29.58662,2.077789 c 2.26385,0.0034 4.03993,1.781206 4.03993,3.964825 v 26.08267 c 0,2.182766 -1.77608,3.960131 -3.95992,3.960131 l -0.26329,0.0085 -29.50341,2.076082" style="fill:#76cc67;fill-opacity:1;fill-rule:nonzero;stroke:none;stroke-width:0.213369"/>
<path d="m 243.048,34.860411 c 1.49188,-1.493584 4.10907,-1.493584 5.60265,0 l 0.18584,0.174963 22.79637,19.862532 c 0.64224,0.66998 1.0327,1.645076 1.0327,2.679917 0,1.060445 -0.40967,2.056878 -1.15646,2.799402 l -20.92149,20.925108 c -1.51769,1.514921 -4.00813,1.538397 -5.55165,0.05331 L 225.12159,58.499578 c -0.79928,-0.802269 -1.20853,-1.798703 -1.20853,-2.857014 0,-1.060444 0.40925,-2.056878 1.15775,-2.80367 L 243.048,34.860411" style="fill:#6d78c4;fill-opacity:1;fill-rule:nonzero;stroke:none;stroke-width:0.213369"/>
<path d="m 142.25371,-29.974788 c -0.77197,0.771756 -1.78548,1.157741 -2.80047,1.157741 -1.01606,0 -2.02957,-0.385985 -2.80133,-1.159448 l -0.1835,-0.170055 -22.80041,-19.865733 c -0.64181,-0.670193 -1.0327,-1.645289 -1.0327,-2.67885 0,-1.062792 0.40924,-2.056238 1.15518,-2.80047 l 20.92276,-20.924257 c 1.51855,-1.517055 4.00985,-1.542019 5.5508,-0.05334 l 19.91332,22.856315 c 1.59706,1.600268 1.59963,4.114823 0.0551,5.657482 l -17.9787,17.980617" style="fill:#6d78c4;fill-opacity:1;fill-rule:nonzero;stroke:none;stroke-width:0.213369"/>
<path d="m 249.1158,-29.976495 c -0.73356,0.73335 -1.76712,1.100131 -2.80218,1.100131 -1.03441,0 -2.06797,-0.366781 -2.80132,-1.100131 l -18.44235,-18.443201 c -1.54437,-1.544366 -1.54437,-4.055507 0,-5.601579 l 0.17603,-0.188406 19.39653,-22.334628 c 1.47524,-1.410156 3.96483,-1.388606 5.48167,0.128449 l 21.38706,21.385988 c 0.74465,0.745939 1.15645,1.741946 1.15645,2.801323 0,1.03356 -0.39259,2.008657 -1.10312,2.746275 l -22.44877,19.505779" style="fill:#df1b2f;fill-opacity:1;fill-rule:nonzero;stroke:none;stroke-width:0.213369"/>
<path d="m 136.18506,34.862544 c 1.46691,-1.467979 4.13915,-1.467979 5.60435,0 l 18.44214,18.441495 c 1.54458,1.544792 1.54458,4.05828 0,5.603073 l -0.17581,0.189899 -19.39739,22.333343 c -0.71842,0.68705 -1.67687,1.032714 -2.64791,1.032714 -1.02098,0 -2.05624,-0.384071 -2.83227,-1.160735 L 113.79048,59.914215 c -0.74594,-0.744659 -1.15774,-1.741093 -1.15774,-2.799404 0,-1.034839 0.39345,-2.009937 1.10354,-2.748194 l 22.44878,-19.504073" style="fill:#df1b2f;fill-opacity:1;fill-rule:nonzero;stroke:none;stroke-width:0.213369"/>
<path d="m 218.55302,2.4432382 c 0,-15.0335622 -12.18615,-27.2188602 -27.21951,-27.2188602 -15.03249,0 -27.2195,12.185298 -27.2195,27.2188602 0,15.0339898 12.18701,27.2194998 27.2195,27.2194998 15.03336,0 27.21951,-12.18551 27.21951,-27.2194998" style="fill:#f9f9f9;fill-opacity:1;fill-rule:nonzero;stroke:none;stroke-width:0.213369"/>
<path d="m 110.48006,-133.07795 v -49.87098 c 0,-0.84494 -0.68513,-1.53007 -1.53114,-1.53007 h -3.824 c -0.84516,0 -1.52943,0.68513 -1.52943,1.53007 v 45.02089 l -13.712383,-33.69312 c -0.470052,-1.15177 -1.589387,-1.90518 -2.832049,-1.90518 H 85.09233 c -1.245223,0 -2.365411,0.75341 -2.832902,1.90518 l -13.711506,33.69312 v -44.94579 c 0,-0.84515 -0.686793,-1.53028 -1.531094,-1.53028 h -3.823981 c -0.845134,0 -1.52943,0.68513 -1.52943,1.53028 v 49.79588 c 0,1.68945 1.368571,3.05971 3.059692,3.05971 h 5.372571 c 1.246076,0 2.36797,-0.75511 2.836316,-1.90944 l 13.146312,-32.29811 13.147167,32.29811 c 0.467705,1.15433 1.588745,1.90944 2.834825,1.90944 h 5.35919 c 1.69031,0 3.06057,-1.37026 3.06057,-3.05971" style="fill:#f9f9f9;fill-opacity:1;fill-rule:nonzero;stroke:none;stroke-width:0.213369"/>
<path d="m 284.06161,-184.48071 h -3.62087 c -0.90256,0 -1.63228,0.73165 -1.63228,1.63184 v 35.21424 c 0,0.90105 0.72972,1.63035 1.63228,1.63035 h 3.62087 c 0.90042,0 1.63228,-0.7293 1.63228,-1.63035 v -35.21424 c 0,-0.90019 -0.73186,-1.63184 -1.63228,-1.63184" style="fill:#f9f9f9;fill-opacity:1;fill-rule:nonzero;stroke:none;stroke-width:0.213369"/>
<path d="m 284.06587,-141.29928 h -3.63154 c -0.90042,0 -1.63013,0.73164 -1.63013,1.63014 v 3.63155 c 0,0.9002 0.72971,1.63013 1.63013,1.63013 h 3.63154 c 0.90042,0 1.63015,-0.72993 1.63015,-1.63013 v -3.63155 c 0,-0.8985 -0.72973,-1.63014 -1.63015,-1.63014" style="fill:#f9f9f9;fill-opacity:1;fill-rule:nonzero;stroke:none;stroke-width:0.213369"/>
<path d="m 270.23102,-180.74675 -0.13869,-2.86128 c -0.0448,-0.8411 -0.76386,-1.48526 -1.60453,-1.45283 -4.66852,0.17005 -10.26477,-0.0367 -13.5402,3.92984 -1.75624,2.12707 -2.17466,5.22498 -2.40808,7.87289 -0.19331,2.20047 -0.13165,4.42164 -0.13165,6.62532 v 30.59778 0.0958 c 0,0.84259 0.6894,1.53177 1.53028,1.53177 h 3.82485 c 0.84004,0 1.52944,-0.68918 1.52944,-1.53177 v -10.06505 h 8.38242 c 0.8428,0 1.53198,-0.68939 1.53198,-1.52943 v -2.86128 c 0,-0.8411 -0.68918,-1.53028 -1.53198,-1.53028 h -8.38242 c 0,0 0,-18.00643 0.0149,-18.00643 0.0151,-3.08874 0.44338,-5.27833 1.30198,-6.53102 0.94757,-1.48441 3.36355,-2.35795 7.23407,-2.63298 0.52915,-0.0384 1.11805,-0.008 1.60666,-0.27076 0.50569,-0.26843 0.81507,-0.80867 0.78094,-1.38029" style="fill:#f9f9f9;fill-opacity:1;fill-rule:nonzero;stroke:none;stroke-width:0.213369"/>
<path d="m 165.58093,-141.29928 h -3.62984 c -0.90191,0 -1.63184,0.73164 -1.63184,1.63014 v 3.63155 c 0,0.9002 0.72993,1.63013 1.63184,1.63013 h 3.62984 c 0.90084,0 1.63099,-0.72993 1.63099,-1.63013 v -3.63155 c 0,-0.8985 -0.73015,-1.63014 -1.63099,-1.63014" style="fill:#f9f9f9;fill-opacity:1;fill-rule:nonzero;stroke:none;stroke-width:0.213369"/>
<path d="m 146.32607,-146.98364 c -2.14628,1.40439 -4.73423,1.85609 -7.25391,1.95872 -4.00472,0.16003 -8.04295,-0.2793 -11.98366,-0.96613 -1.40931,-0.24581 -2.7721,-0.54665 -4.18481,-0.94758 -0.82595,-0.18328 -1.34615,-0.9943 -1.17759,-1.82024 l 0.59594,-2.79877 c 0.18329,-0.82851 0.9958,-1.347 1.8226,-1.1778 1.928,0.39431 3.84,0.86756 5.78103,1.19445 3.25899,0.54579 7.22553,0.99259 10.4442,0.0298 0.96358,-0.28825 1.80447,-0.85753 2.34643,-1.71527 0.65418,-1.03676 0.56926,-2.36861 0.55838,-3.5464 -0.005,-0.68513 -0.0843,-5.21923 -0.0843,-5.21923 -1.79102,0.19843 -4.43658,0.30512 -7.95547,0.30512 -5.50834,0 -9.4849,-0.73357 -11.93203,-2.21883 -2.90715,-1.7876 -4.36147,-4.84732 -4.36147,-9.17722 0,-3.77813 0.98021,-6.76359 2.93787,-8.95062 1.95873,-2.18703 5.55357,-3.28823 10.7553,-3.28823 6.27177,0 11.05999,0.79864 14.38066,2.37288 0.87011,0.36678 1.727,1.03953 2.23376,1.84948 0.58078,0.95035 0.7485,2.06627 0.7485,3.12223 v 20.0392 c 0,3.71903 -0.20014,8.69074 -3.67145,10.95438 m -3.13567,-27.70556 c 0,-1.11592 -0.10754,-1.9886 -0.30662,-2.60118 -0.25924,-0.56501 -0.7485,-0.9943 -1.45453,-1.29942 -1.896,-0.76599 -4.51148,-1.14772 -7.87802,-1.14772 -3.0595,0 -5.155,0.58272 -6.27091,1.72787 -1.13364,1.14856 -1.6837,2.8297 -1.6837,5.08075 0,2.18703 0.61173,3.66994 1.83625,4.43573 1.42275,0.96443 4.28403,1.45283 8.56635,1.45283 2.54037,0 4.94163,-0.10669 7.19118,-0.30512 v -7.34374" style="fill:#f9f9f9;fill-opacity:1;fill-rule:nonzero;stroke:none;stroke-width:0.213369"/>
<path d="m 206.37519,-177.85539 c -3.6164,-0.70027 -7.21956,-1.49358 -10.92173,-1.4987 h -0.0459 c -3.91661,0 -6.82462,0.82595 -8.67559,2.493 -1.86613,1.65361 -2.81477,4.84903 -2.87643,9.59244 h 23.10147 c 0.6734,0 1.20853,0.15171 1.60603,0.45917 0.41351,0.35185 0.61088,1.14516 0.61088,2.37032 0,2.6014 -0.0757,4.75835 -0.22916,6.47127 -0.15255,1.69693 -0.50419,3.44207 -1.0694,5.23245 -0.55178,1.78953 -1.36258,3.18049 -2.40276,4.20743 -1.05532,1.02439 -2.49385,1.84948 -4.32904,2.49364 -1.83541,0.62603 -4.07002,0.94608 -6.73201,0.94608 -5.90435,0 -10.32685,-1.59024 -13.2323,-4.77157 -2.90716,-3.19819 -4.36148,-8.35319 -4.36148,-15.49679 0,-7.03713 1.34679,-12.11702 4.05572,-15.26848 2.70702,-3.13632 7.29701,-4.69668 13.76807,-4.69668 4.33651,0 8.73555,0.54025 12.85122,1.65212 0.84366,0.2283 1.37623,0.96421 1.22282,1.78931 l -0.55006,2.81477 c -0.15256,0.82766 -0.96358,1.36343 -1.79038,1.21022 m -19.99504,24.20226 c 1.52943,1.83454 4.08496,2.75224 7.64886,2.75224 3.32045,0 5.57,-0.73186 6.77852,-2.21712 1.19273,-1.48441 1.78867,-3.77813 1.78867,-6.88286 0,-0.81101 -0.0157,-1.41015 -0.0757,-1.76264 h -18.58659 c 0.10519,3.5654 0.91685,6.27348 2.44628,8.11038" style="fill:#f9f9f9;fill-opacity:1;fill-rule:nonzero;stroke:none;stroke-width:0.213369"/>
<path d="m 167.21192,-147.53371 v -39.7767 c 0,-4.1624 -0.85091,-8.82646 -4.25479,-11.60026 -2.97223,-2.42458 -7.06529,-3.00468 -10.75274,-3.40808 -0.84089,-0.0917 -1.59195,0.52092 -1.68349,1.36106 l -0.30511,2.84715 c -0.0316,0.29172 0.0141,0.56509 0.13762,0.81264 0.23578,0.4884 0.65248,0.69511 1.16436,0.79346 2.64279,0.51426 6.0951,0.99434 7.65611,3.49558 1.01948,1.63355 1.15369,3.75316 1.15369,5.62185 v 39.8533 c 0,0.84004 0.68833,1.52943 1.52943,1.52943 h 3.82464 c 0.8411,0 1.53028,-0.68939 1.53028,-1.52943" style="fill:#f9f9f9;fill-opacity:1;fill-rule:nonzero;stroke:none;stroke-width:0.213369"/>
<path d="m 323.62878,-182.43706 c 0.10455,-0.74274 -0.60384,-1.06685 -1.24608,-1.28021 -1.65787,-0.53919 -3.43737,-0.83193 -5.155,-1.10697 -2.1849,-0.35248 -4.45727,-0.62325 -6.66991,-0.48242 -5.1422,0.12162 -9.01272,1.58939 -11.62862,4.39157 -2.72259,2.92294 -4.08389,7.95375 -4.08389,15.09991 0,7.23535 1.3613,12.51389 4.08389,15.80447 2.35773,2.82714 6.08955,4.43317 11.19974,4.81745 3.96867,0.29658 7.69836,-0.21337 11.54968,-1.09032 0.58036,-0.1325 0.93242,-0.28165 1.2226,-0.73015 0.20057,-0.32155 0.27525,-0.70327 0.20057,-1.10269 l -0.56756,-2.81456 c -0.1643,-0.82765 -0.97083,-1.36108 -1.79657,-1.19273 0,0 -1.19913,0.24175 -1.2162,0.24346 -4.61305,0.93263 -12.60159,2.1211 -15.57382,-2.76975 -1.42317,-2.33873 -2.14009,-5.84183 -2.14009,-10.47578 0,-4.85244 0.70198,-8.43064 2.09315,-10.741 1.41037,-2.32616 4.07109,-3.48901 8.00134,-3.48901 2.63938,0 5.31076,0.23513 7.87973,0.84281 1.17779,0.25817 1.86697,0.38171 2.06541,0.38171 0.6017,0 0.9815,-0.33926 1.10952,-0.88932 0,0 0.66144,-3.34563 0.67211,-3.41647" style="fill:#f9f9f9;fill-opacity:1;fill-rule:nonzero;stroke:none;stroke-width:0.213369"/>
<path d="m 244.25397,-173.81652 c 0,-3.3164 -1.09501,-6.6569 -3.82315,-8.70567 -3.78389,-2.83952 -9.129,-2.98291 -13.64965,-2.67779 -2.99805,0.20249 -5.91779,0.78499 -8.80404,1.60433 -0.62432,0.17752 -1.41442,0.30512 -1.85695,0.82851 -0.33669,0.39836 -0.45917,0.94928 -0.29082,1.46947 l 0.88676,2.72451 c 0.2618,0.80696 1.13342,1.23775 1.92865,0.97766 0,0 0.55838,-0.14914 0.87012,-0.24495 3.03133,-0.93093 6.17447,-1.47267 9.34321,-1.63036 2.53974,-0.12588 5.6927,-0.0533 7.52041,2.02872 1.44942,1.65191 1.81706,4.7799 0.0734,6.34773 -0.766,0.68769 -2.43283,1.40866 -4.97257,2.1721 -5.49083,1.56015 -12.54781,2.65453 -14.33392,9.04066 -1.26784,4.53815 0.0548,10.1775 4.29981,12.67883 2.98291,1.75112 6.48771,2.26789 9.89926,2.21029 3.53297,-0.0574 7.11352,-0.56351 10.47664,-1.65618 0.61173,-0.19821 0.9943,-0.73164 1.05682,-1.31606 0,-0.2091 -0.0166,-0.40753 -0.0783,-0.61001 l -0.88677,-2.72537 c -0.25668,-0.79096 -1.10931,-1.25035 -1.90026,-0.98534 -1.85205,0.61856 -3.76917,1.03442 -5.70358,1.28448 -2.76206,0.35846 -6.15761,0.73186 -8.63803,-0.91109 -1.75795,-1.1652 -2.59136,-3.62556 -1.95958,-5.6291 0.75597,-2.3955 3.64072,-3.21569 5.78017,-3.88331 0,0 5.26915,-1.60433 5.27662,-1.6086 5.49361,-1.6711 9.48575,-4.50827 9.48575,-10.78346" style="fill:#f9f9f9;fill-opacity:1;fill-rule:nonzero;stroke:none;stroke-width:0.213369"/>
</g>
</svg>
