<svg width="512" height="512" viewBox="80 80 130 156" style="fill:#ffffff" xmlns="http://www.w3.org/2000/svg">
<rect style="fill:#4c60d8" width="156" height="156" x="67" y="80" rx="7.6171875" ry="7.6171875"/>
<path d="m 99.309752,179.47017 c -1.163923,0 -2.081914,-0.38332 -2.728905,-1.13933 -0.650303,-0.76026 -0.980184,-1.8698 -0.980184,-3.2981 v -2.70526 c 0,-1.4283 0.329881,-2.53783 0.980184,-3.29786 0.646755,-0.75624 1.564982,-1.13956 2.728905,-1.13956 1.163928,0 2.082148,0.38332 2.729138,1.13956 0.65031,0.7605 0.98019,1.87027 0.98019,3.29786 v 2.70526 c 0,1.42783 -0.32988,2.53736 -0.98019,3.2981 -0.64722,0.75601 -1.56521,1.13933 -2.729138,1.13933 m 5.867388,-12.85873 c -0.69949,-0.79573 -1.55978,-1.40323 -2.55676,-1.80547 -0.9946,-0.4013 -2.10863,-0.6049 -3.310628,-0.6049 -1.201995,0 -2.315786,0.2036 -3.310631,0.6049 -0.997445,0.40271 -1.8575,1.01021 -2.556516,1.80547 -0.698779,0.79479 -1.247398,1.79413 -1.630485,2.97035 -0.382615,1.17338 -0.576759,2.55226 -0.576759,4.09832 0,1.5463 0.194144,2.92518 0.576759,4.09856 0.383323,1.1767 0.931942,2.17603 1.630485,2.97035 0.69878,0.7955 1.559071,1.403 2.556516,1.80548 0.994845,0.40129 2.108636,0.60466 3.310631,0.60466 1.202228,0 2.316028,-0.20337 3.310628,-0.60466 0.99698,-0.40225 1.85727,-1.00975 2.55676,-1.80548 0.69807,-0.79432 1.24669,-1.79365 1.63048,-2.97035 0.38262,-1.1748 0.57676,-2.55367 0.57676,-4.09856 0,-1.54488 -0.19414,-2.92376 -0.57676,-4.09832 -0.38356,-1.17622 -0.93218,-2.17556 -1.63048,-2.97035"/>
<path d="m 118.8223,174.74671 v 2.3671 c 0,0.84019 -0.23269,1.51532 -0.69145,2.00743 -0.45734,0.49044 -1.04379,0.73921 -1.74305,0.73921 -0.70563,0 -1.29611,-0.17333 -1.75487,-0.51575 -0.45734,-0.34052 -0.67962,-0.79786 -0.67962,-1.39874 v -4.03187 c 0,-0.60017 0.22228,-1.05751 0.67962,-1.39851 0.45924,-0.34218 1.04971,-0.51551 1.75487,-0.51551 0.69878,0 1.28524,0.24877 1.74281,0.73922 0.459,0.49233 0.69169,1.1677 0.69169,2.00742 m -1.1599,-6.04545 c -0.89884,0 -1.70805,0.25043 -2.40541,0.74442 -0.65078,0.46136 -1.08849,1.05373 -1.30368,1.7622 v -2.19471 h -4.02715 v 19.03613 h 4.02715 v -7.41392 c 0.10736,0.32136 0.26272,0.62783 0.46301,0.91231 0.22891,0.32681 0.51173,0.61389 0.83949,0.8532 0.3268,0.23836 0.69854,0.4266 1.10456,0.55878 0.40579,0.13243 0.84398,0.19959 1.30203,0.19959 1.75605,0 3.10158,-0.62949 3.99971,-1.87051 0.89151,-1.23226 1.34341,-3.03939 1.34341,-5.3715 0,-2.33186 -0.4519,-4.13474 -1.34364,-5.35872 -0.89813,-1.2325 -2.24367,-1.85727 -3.99948,-1.85727"/>
<path d="m 129.13683,174.43447 c 0,-0.82364 0.2159,-1.49144 0.64155,-1.98401 0.42282,-0.48879 1.01731,-0.73662 1.76693,-0.73662 0.74608,0 1.30416,0.24593 1.65816,0.73094 0.35991,0.49399 0.54223,1.1547 0.54223,1.96368 v 0.14543 h -4.60887 z m 7.277,-3.59298 c -0.51787,-0.64912 -1.19372,-1.17409 -2.00813,-1.55954 -0.81536,-0.38522 -1.80382,-0.58078 -2.93866,-0.58078 -1.03055,0 -1.96107,0.1731 -2.76556,0.51433 -0.80637,0.3417 -1.49546,0.83522 -2.0481,1.46684 -0.55169,0.63068 -0.97379,1.39827 -1.25354,2.28174 -0.2788,0.87992 -0.42022,1.87358 -0.42022,2.95308 0,1.09653 0.14591,2.10343 0.43346,2.99281 0.28897,0.89316 0.72432,1.66099 1.29351,2.28244 0.56919,0.6224 1.27578,1.11119 2.09941,1.4529 0.82199,0.34099 1.76977,0.51385 2.81735,0.51385 1.25402,0 2.39004,-0.20407 3.37613,-0.60631 0.98823,-0.40366 1.80051,-0.97357 2.41393,-1.6941 l 0.0478,-0.0556 -2.03367,-2.53524 -0.07,0.0721 c -0.42707,0.44008 -0.89434,0.82198 -1.38857,1.13483 -0.48619,0.30766 -1.1268,0.46349 -1.90337,0.46349 -1.01046,0 -1.75866,-0.25515 -2.22404,-0.75837 -0.46774,-0.50487 -0.70469,-1.20057 -0.70469,-2.06796 v -0.11776 h 8.76608 v -1.23321 c 0,-0.92249 -0.11919,-1.81896 -0.35448,-2.66388 -0.23623,-0.84847 -0.6179,-1.60731 -1.1346,-2.25572"/>
<path d="m 147.97297,168.70126 c -1.09204,0 -1.96037,0.26958 -2.58087,0.80165 -0.59946,0.51362 -1.02985,1.12774 -1.2798,1.82557 l -0.004,-2.31531 h -4.02715 v 13.8337 h 4.02715 v -8.93279 c 0,-0.31309 0.0665,-0.59165 0.19722,-0.82836 0.13148,-0.23884 0.31143,-0.44363 0.53443,-0.60892 0.22465,-0.16601 0.48146,-0.28803 0.7631,-0.36275 0.2859,-0.0757 0.58456,-0.11398 0.88772,-0.11398 0.67561,0 1.1495,0.20076 1.40844,0.59709 0.2665,0.40887 0.40177,1.05326 0.40177,1.91544 v 8.33427 h 4.02714 v -8.64642 c 0,-1.74564 -0.36937,-3.11175 -1.09771,-4.06001 -0.73425,-0.95488 -1.82983,-1.43918 -3.25695,-1.43918"/>
<path d="m 155.42305,167.83816 h 2.34109 v 11.68416 h -2.34109 v 3.32458 h 8.81337 v -3.32458 h -2.34109 v -11.68416 h 2.34109 v -3.32506 h -8.81337 z"/>
<path d="m 171.82701,168.12429 h 4.07326 c 0.56375,0 1.01234,0.14543 1.33205,0.43251 0.31735,0.28448 0.47815,0.71297 0.47815,1.27365 v 1.14453 c 0,0.56091 -0.1608,0.9894 -0.47815,1.27341 -0.31924,0.28708 -0.76759,0.43275 -1.33205,0.43275 h -4.07326 z m 8.62443,-1.97053 c -0.48359,-0.50961 -1.07548,-0.91492 -1.75936,-1.20436 -0.68412,-0.28921 -1.46614,-0.43606 -2.32383,-0.43606 h -8.67267 v 18.33356 h 4.13143 v -6.55481 h 4.54124 c 0.85769,0 1.63971,-0.14685 2.32383,-0.4363 0.68459,-0.28968 1.27648,-0.69475 1.75936,-1.20412 0.48311,-0.50936 0.86147,-1.13223 1.1249,-1.85159 0.26225,-0.71722 0.39515,-1.52383 0.39515,-2.3976 0,-0.8558 -0.1329,-1.65792 -0.39515,-2.38413 -0.26343,-0.72739 -0.64155,-1.35499 -1.1249,-1.86459"/>
<path d="m 195.37692,176.72417 -0.0367,0.0986 c -0.27148,0.72881 -0.69665,1.36043 -1.26419,1.87713 -0.56163,0.51125 -1.32473,0.77019 -2.26849,0.77019 -1.13082,0 -2.04999,-0.37103 -2.73151,-1.10315 -0.68317,-0.73378 -1.02961,-1.82061 -1.02961,-3.22999 v -2.91336 c 0,-1.40938 0.34644,-2.49621 1.02961,-3.22999 0.68152,-0.73236 1.60069,-1.10362 2.73151,-1.10362 0.96103,0 1.69788,0.22441 2.19069,0.66662 0.49683,0.44693 0.86928,1.05065 1.10646,1.79483 l 0.0317,0.1005 3.57571,-1.85608 -0.0345,-0.0761 c -0.66355,-1.48364 -1.55884,-2.58631 -2.66104,-3.27753 -1.10197,-0.69097 -2.51797,-1.04119 -4.20899,-1.04119 -1.23723,0 -2.36923,0.21235 -3.36384,0.63139 -0.99745,0.41997 -1.85726,1.04497 -2.55604,1.85773 -0.69831,0.81158 -1.24669,1.82842 -1.63002,3.02213 -0.38261,1.19041 -0.57652,2.56929 -0.57652,4.09809 0,1.5463 0.19391,2.91667 0.57652,4.07255 0.38356,1.1599 0.93242,2.14198 1.6312,2.91879 0.69902,0.778 1.55907,1.37226 2.55652,1.76599 0.99413,0.39255 2.12542,0.59142 3.36218,0.59142 1.69244,0 3.11388,-0.38569 4.22483,-1.1469 1.1093,-0.76002 2.01642,-1.85229 2.69604,-3.24678 l 0.0362,-0.0743 z"/>
<path d="m 138.12312,121.26141 -2.71974,-3.17168 1.45585,-1.24834 c 4.7162,-4.04329 11.56233,-4.04352 16.279,-6.9e-4 l 1.43635,1.23139 -2.71951,3.17214 -1.43635,-1.23139 c -3.14058,-2.69259 -7.6994,-2.69166 -10.83998,2.3e-4 z"/>
<path d="m 135.39989,148.79476 -14.92667,-12.7979 14.92249,-12.79419 2.71951,3.17214 -11.22274,9.62205 11.22692,9.62622 z"/>
<path d="m 144.99907,158.18564 c -2.89105,0 -5.7814,-1.01065 -8.13973,-3.03287 l -1.454,-1.24648 2.71951,-3.17215 1.454,1.24672 c 3.14058,2.69281 7.69917,2.69281 10.83998,4.6e-4 l 1.43101,-1.22721 2.71951,3.17214 -1.43125,1.22721 c -2.35786,2.0213 -5.24868,3.03218 -8.13903,3.03218"/>
<path d="m 154.57922,148.81131 -2.71928,-3.17214 11.24735,-9.64224 -11.24247,-9.6376 2.71927,-3.17238 14.94269,12.80998 z"/>
<path d="m 152.89204,135.99714 c 0,4.35851 -3.53355,7.89206 -7.89206,7.89206 -4.35874,0 -7.89206,-3.53355 -7.89206,-7.89206 0,-4.35874 3.53332,-7.89206 7.89206,-7.89206 4.35851,0 7.89206,3.53332 7.89206,7.89206"/>
<path d="m 114.18397,200.9725 q -0.79773,0 -1.43817,-0.24719 -0.64043,-0.25842 -1.08986,-0.75279 -0.44943,-0.50561 -0.69662,-1.24716 -0.24718,-0.7528 -0.24718,-1.75277 0,-0.98874 0.24718,-1.75277 0.24719,-0.77527 0.69662,-1.29211 0.44943,-0.52808 1.08986,-0.79773 0.64044,-0.26966 1.43817,-0.26966 1.08986,0 1.79771,0.44943 0.70785,0.43819 1.13481,1.39323 l -1.47188,0.76402 q -0.1573,-0.49437 -0.49437,-0.7865 -0.32583,-0.30336 -0.96627,-0.30336 -0.75279,0 -1.21345,0.49437 -0.44943,0.48314 -0.44943,1.4157 v 1.2584 q 0,0.93256 0.44943,1.42693 0.46066,0.48314 1.21345,0.48314 0.6292,0 0.99998,-0.33707 0.38201,-0.34831 0.56178,-0.83145 l 1.39323,0.80897 q -0.43819,0.89886 -1.15728,1.39323 -0.70785,0.48314 -1.79771,0.48314 z"/>
<path d="m 121.32986,200.9725 q -0.77526,0 -1.4157,-0.25843 -0.64043,-0.25842 -1.08986,-0.76402 -0.44943,-0.51684 -0.69661,-1.26964 -0.24719,-0.76402 -0.24719,-1.764 0,-0.99998 0.24719,-1.75277 0.24718,-0.76403 0.69661,-1.26963 0.44943,-0.51685 1.08986,-0.77527 0.64044,-0.25842 1.4157,-0.25842 0.77526,0 1.4157,0.25842 0.64043,0.25842 1.08986,0.77527 0.44943,0.5056 0.69661,1.26963 0.24719,0.75279 0.24719,1.75277 0,0.99998 -0.24719,1.764 -0.24718,0.7528 -0.69661,1.26964 -0.44943,0.5056 -1.08986,0.76402 -0.64044,0.25843 -1.4157,0.25843 z m 0,-1.51682 q 0.77526,0 1.20222,-0.50561 0.43819,-0.50561 0.43819,-1.44941 v -1.16851 q 0,-0.9438 -0.43819,-1.4494 -0.42696,-0.50561 -1.20222,-0.50561 -0.77526,0 -1.21346,0.50561 -0.42695,0.5056 -0.42695,1.4494 v 1.16851 q 0,0.9438 0.42695,1.44941 0.4382,0.50561 1.21346,0.50561 z"/>
<path d="m 132.07117,195.69172 h -0.0337 l -0.57302,1.14604 -1.52806,2.77522 -1.49435,-2.76399 -0.59549,-1.23592 h -0.0337 v 5.2246 h -1.6067 v -7.84252 h 1.80895 l 1.9213,3.67407 h 0.0225 l 1.89884,-3.67407 h 1.82018 v 7.84252 h -1.60671 z"/>
<path d="m 141.27319,195.69172 h -0.0337 l -0.57302,1.14604 -1.52806,2.77522 -1.49435,-2.76399 -0.59549,-1.23592 h -0.0337 v 5.2246 h -1.6067 v -7.84252 h 1.80895 l 1.9213,3.67407 h 0.0225 l 1.89884,-3.67407 h 1.82018 v 7.84252 h -1.60671 z"/>
<path d="m 146.22812,192.99515 v 4.80888 q 0,0.83144 0.32584,1.24716 0.32583,0.40449 1.08986,0.40449 0.76403,0 1.08986,-0.40449 0.32584,-0.41572 0.32584,-1.24716 v -4.80888 h 1.66288 v 4.62911 q 0,0.86515 -0.16853,1.50558 -0.1573,0.6292 -0.52808,1.04492 -0.37078,0.40449 -0.95504,0.60673 -0.58425,0.19101 -1.42693,0.19101 -0.84268,0 -1.42693,-0.19101 -0.58426,-0.20224 -0.95504,-0.60673 -0.37078,-0.41572 -0.53931,-1.04492 -0.1573,-0.64043 -0.1573,-1.50558 v -4.62911 z"/>
<path d="m 154.80094,197.12989 -0.75279,-1.573 h -0.0337 v 5.28078 h -1.60671 v -7.84252 h 1.86513 l 2.14602,3.70778 0.75279,1.573 h 0.0337 v -5.28078 h 1.6067 v 7.84252 h -1.86512 z"/>
<path d="m 160.23901,200.83767 v -1.35952 h 1.01121 v -5.12348 h -1.01121 v -1.35952 h 3.73025 v 1.35952 h -1.01121 v 5.12348 h 1.01121 v 1.35952 z"/>
<path d="m 168.62081,194.51197 v 6.3257 h -1.70782 v -6.3257 h -2.12355 v -1.51682 h 5.95492 v 1.51682 z"/>
<path d="m 173.86786,200.83767 v -3.06735 l -2.68533,-4.77517 h 1.91007 l 1.68535,3.12352 h 0.0225 l 1.61794,-3.12352 h 1.8539 l -2.68534,4.76394 v 3.07858 z"/>
</svg>
