<?xml version="1.0" encoding="utf-8"?>
<!-- Generator: Adobe Illustrator 19.0.0, SVG Export Plug-In . SVG Version: 6.00 Build 0)  -->
<svg version="1.1" id="Layer_1" xmlns="http://www.w3.org/2000/svg" xmlns:xlink="http://www.w3.org/1999/xlink" x="0px" y="0px"
	 viewBox="0 0 500 500" style="enable-background:new 0 0 500 500;" xml:space="preserve">
<style type="text/css">
	.st0{fill:#B8D3F4;}
	.st1{fill:#7FADF2;}
</style>
<g id="XMLID_1_">
	<path id="XMLID_2_" class="st0" d="M366.9,250c0,22.9-7,44.7-18.9,63.6l47.7,47.7c23.9-31.9,36.8-70.6,36.8-110.4
		c0-41.8-13.9-79.6-37.8-110.4l-46.8,46.7C360.3,205.9,366.9,227.6,366.9,250L366.9,250z"/>
	<path id="XMLID_3_" class="st1" d="M249.5,367.3c-64.8-0.1-117.2-52.6-117.4-117.3c0.1-64.8,52.6-117.3,117.4-117.4
		c23.9,0,45.8,7,63.7,18.9l46.7-46.8C328,80.9,289.3,68,249.5,68c-100.5,0-182,81.5-182,182c0,100.4,81.5,182,182,182
		c40,0.1,78.9-13.2,110.4-37.8l-47.7-47.7C295.2,360.4,273.4,367.3,249.5,367.3z"/>
</g>
</svg>
