<svg xmlns="http://www.w3.org/2000/svg" width="16" height="16" fill="currentColor" class="bi bi-opencollective" viewBox="0 0 16 16">
<g transform="matrix(0.04383562,0,0,0.0438351,-2.9589043,-2.9807868)">
<path d="m 366.9,250 c 0,22.9 -7,44.7 -18.9,63.6 l 47.7,47.7 c 23.9,-31.9 36.8,-70.6 36.8,-110.4 0,-41.8 -13.9,-79.6 -37.8,-110.4 l -46.8,46.7 c 12.4,18.7 19,40.4 19,62.8 z"/>
<path d="M 249.5,367.3 C 184.7,367.2 132.3,314.7 132.1,250 c 0.1,-64.8 52.6,-117.3 117.4,-117.4 23.9,0 45.8,7 63.7,18.9 l 46.7,-46.8 C 328,80.9 289.3,68 249.5,68 149,68 67.5,149.5 67.5,250 c 0,100.4 81.5,182 182,182 40,0.1 78.9,-13.2 110.4,-37.8 l -47.7,-47.7 c -17,13.9 -38.8,20.8 -62.7,20.8 z"/>
</g>
</svg>
