<?xml version="1.0" encoding="UTF-8" standalone="no"?>
<!-- Created with Inkscape (http://www.inkscape.org/) -->

<svg
   width="512"
   height="512"
   viewBox="0 0 135.46667 135.46667"
   version="1.1"
   id="svg8"
   inkscape:version="1.2 (dc2aedaf03, 2022-05-15)"
   sodipodi:docname="openipc-community.svg"
   xml:space="preserve"
   xmlns:inkscape="http://www.inkscape.org/namespaces/inkscape"
   xmlns:sodipodi="http://sodipodi.sourceforge.net/DTD/sodipodi-0.dtd"
   xmlns="http://www.w3.org/2000/svg"
   xmlns:svg="http://www.w3.org/2000/svg"
   xmlns:rdf="http://www.w3.org/1999/02/22-rdf-syntax-ns#"
   xmlns:cc="http://creativecommons.org/ns#"
   xmlns:dc="http://purl.org/dc/elements/1.1/"><defs
     id="defs2" /><sodipodi:namedview
     id="base"
     pagecolor="#ffffff"
     bordercolor="#666666"
     borderopacity="1.0"
     inkscape:pageopacity="0.0"
     inkscape:pageshadow="2"
     inkscape:zoom="0.98994949"
     inkscape:cx="694.98495"
     inkscape:cy="328.80465"
     inkscape:document-units="in"
     inkscape:current-layer="layer1"
     showgrid="false"
     units="in"
     inkscape:window-width="2560"
     inkscape:window-height="1385"
     inkscape:window-x="0"
     inkscape:window-y="30"
     inkscape:window-maximized="1"
     inkscape:showpageshadow="2"
     inkscape:pagecheckerboard="0"
     inkscape:deskcolor="#d1d1d1" /><metadata
     id="metadata5"><rdf:RDF><cc:Work
         rdf:about=""><dc:format>image/svg+xml</dc:format><dc:type
           rdf:resource="http://purl.org/dc/dcmitype/StillImage" /><dc:creator><cc:Agent><dc:title>Paul Philippov</dc:title></cc:Agent></dc:creator></cc:Work></rdf:RDF></metadata><g
     inkscape:label="Layer 1"
     inkscape:groupmode="layer"
     id="layer1"
     transform="translate(0,7.8000169)"><g
       id="g13554"
       transform="matrix(0.8839623,0,0,0.88497755,-60.862228,-78.359946)"><path
         style="fill:#4c60d8;fill-opacity:1;stroke-width:1.01015;paint-order:stroke fill markers;stop-color:#000000"
         d="m 276.87345,908.05605 c -5.97241,-2.19265 -9.9269,-5.67773 -13.24952,-11.67673 l -3.00457,-5.42477 -0.25998,-268.66902 c -0.28559,-295.13934 -0.70356,-274.70721 5.77953,-282.53059 1.68496,-2.03331 5.42638,-4.87436 8.31426,-6.31345 l 5.25068,-2.61653 h 270.04991 c 240.18479,0 270.45925,0.17103 273.75117,1.54648 5.92433,2.47535 9.70853,5.90513 12.92726,11.71657 l 3.00458,5.42477 v 270.21581 270.2158 l -2.11644,4.54569 c -2.47039,5.30593 -7.27566,10.26999 -12.4221,12.83261 -3.47636,1.73102 -16.08981,1.82309 -273.86002,1.99888 -232.58628,0.15862 -270.76572,-0.0176 -274.16476,-1.26552 z"
         id="path7573"
         transform="matrix(0.26458334,0,0,0.26458334,0,-7.8000169)" /><path
         d="m 99.811203,178.68159 c -1.163923,0 -2.081914,-0.38332 -2.728905,-1.13933 -0.650303,-0.76026 -0.980184,-1.8698 -0.980184,-3.2981 v -2.70526 c 0,-1.4283 0.329881,-2.53783 0.980184,-3.29786 0.646755,-0.75624 1.564982,-1.13956 2.728905,-1.13956 1.163927,0 2.082147,0.38332 2.729137,1.13956 0.65031,0.7605 0.98019,1.87027 0.98019,3.29786 v 2.70526 c 0,1.42783 -0.32988,2.53736 -0.98019,3.2981 -0.64722,0.75601 -1.56521,1.13933 -2.729137,1.13933 m 5.867387,-12.85873 c -0.69949,-0.79573 -1.55978,-1.40323 -2.55676,-1.80547 -0.9946,-0.4013 -2.10863,-0.6049 -3.310627,-0.6049 -1.201995,0 -2.315786,0.2036 -3.310631,0.6049 -0.997445,0.40271 -1.8575,1.01021 -2.556516,1.80547 -0.698779,0.79479 -1.247398,1.79413 -1.630485,2.97035 -0.382615,1.17338 -0.576759,2.55226 -0.576759,4.09832 0,1.5463 0.194144,2.92518 0.576759,4.09856 0.383323,1.1767 0.931942,2.17603 1.630485,2.97035 0.69878,0.7955 1.559071,1.403 2.556516,1.80548 0.994845,0.40129 2.108636,0.60466 3.310631,0.60466 1.202227,0 2.316027,-0.20337 3.310627,-0.60466 0.99698,-0.40225 1.85727,-1.00975 2.55676,-1.80548 0.69807,-0.79432 1.24669,-1.79365 1.63048,-2.97035 0.38262,-1.1748 0.57676,-2.55367 0.57676,-4.09856 0,-1.54488 -0.19414,-2.92376 -0.57676,-4.09832 -0.38356,-1.17622 -0.93218,-2.17556 -1.63048,-2.97035"
         style="fill:#ffffff;fill-opacity:1;fill-rule:nonzero;stroke:none;stroke-width:0.236474"
         id="path1775" /><path
         d="m 0,0 v -10.01 c 0,-3.553 -0.984,-6.408 -2.924,-8.489 -1.934,-2.074 -4.414,-3.126 -7.371,-3.126 -2.984,0 -5.481,0.733 -7.421,2.181 -1.934,1.44 -2.874,3.374 -2.874,5.915 v 17.05 c 0,2.538 0.94,4.472 2.874,5.914 1.942,1.447 4.439,2.18 7.421,2.18 2.955,0 5.435,-1.052 7.37,-3.126 C -0.984,6.407 0,3.551 0,0 m -4.905,25.565 c -3.801,0 -7.223,-1.059 -10.172,-3.148 -2.752,-1.951 -4.603,-4.456 -5.513,-7.452 v 9.281 h -17.03 v -80.5 h 17.03 v 31.352 c 0.454,-1.359 1.111,-2.655 1.958,-3.858 0.968,-1.382 2.164,-2.596 3.55,-3.608 1.382,-1.008 2.954,-1.804 4.671,-2.363 1.716,-0.56 3.569,-0.844 5.506,-0.844 7.426,0 13.116,2.662 16.914,7.91 3.77,5.211 5.681,12.853 5.681,22.715 0,9.861 -1.911,17.485 -5.682,22.661 -3.798,5.212 -9.488,7.854 -16.913,7.854"
         style="fill:#ffffff;fill-opacity:1;fill-rule:nonzero;stroke:none"
         id="path1779"
         clip-path="none"
         transform="matrix(0.23647361,0,0,-0.23647361,119.32375,173.95813)" /><path
         d="m 0,0 c 0,3.483 0.913,6.307 2.713,8.39 1.788,2.067 4.302,3.115 7.472,3.115 3.155,0 5.515,-1.04 7.012,-3.091 C 18.719,6.325 19.49,3.531 19.49,0.11 V -0.505 H 0 Z m 30.773,15.194 c -2.19,2.745 -5.048,4.965 -8.492,6.595 -3.448,1.629 -7.628,2.456 -12.427,2.456 -4.358,0 -8.293,-0.732 -11.695,-2.175 -3.41,-1.445 -6.324,-3.532 -8.661,-6.203 -2.333,-2.667 -4.118,-5.913 -5.301,-9.649 -1.179,-3.721 -1.777,-7.923 -1.777,-12.488 0,-4.637 0.617,-8.895 1.833,-12.656 1.222,-3.777 3.063,-7.024 5.47,-9.652 2.407,-2.632 5.395,-4.699 8.878,-6.144 3.476,-1.442 7.484,-2.173 11.914,-2.173 5.303,0 10.107,0.863 14.277,2.564 4.179,1.707 7.614,4.117 10.208,7.164 l 0.202,0.235 -8.6,10.721 -0.296,-0.305 c -1.806,-1.861 -3.782,-3.476 -5.872,-4.799 -2.056,-1.301 -4.765,-1.96 -8.049,-1.96 -4.273,0 -7.437,1.079 -9.405,3.207 C 1.002,-17.933 0,-14.991 0,-11.323 v 0.498 h 37.07 v 5.215 c 0,3.901 -0.504,7.692 -1.499,11.265 -0.999,3.588 -2.613,6.797 -4.798,9.539"
         style="fill:#ffffff;fill-opacity:1;fill-rule:nonzero;stroke:none"
         id="path1783"
         transform="matrix(0.23647361,0,0,-0.23647361,129.63828,173.64589)"
         clip-path="none" /><path
         d="m 0,0 c -4.618,0 -8.29,-1.14 -10.914,-3.39 -2.535,-2.172 -4.355,-4.769 -5.412,-7.72 l -0.019,9.791 h -17.03 v -58.5 h 17.03 v 37.775 c 0,1.324 0.281,2.502 0.834,3.503 0.556,1.01 1.317,1.876 2.26,2.575 0.95,0.702 2.036,1.218 3.227,1.534 1.209,0.32 2.472,0.482 3.754,0.482 2.857,0 4.861,-0.849 5.956,-2.525 1.127,-1.729 1.699,-4.454 1.699,-8.1 v -35.244 h 17.03 v 36.564 c 0,7.382 -1.562,13.159 -4.642,17.169 C 10.668,-2.048 6.035,0 0,0"
         style="fill:#ffffff;fill-opacity:1;fill-rule:nonzero;stroke:none"
         id="path1787"
         transform="matrix(0.23647361,0,0,-0.23647361,148.47442,167.91268)"
         clip-path="none" /><path
         d="M 0,0 H 9.9 V -49.41 H 0 v -14.059 h 37.27 v 14.059 h -9.9 V 0 h 9.9 V 14.061 H 0 Z"
         style="fill:#ffffff;fill-opacity:1;fill-rule:nonzero;stroke:none"
         id="path1791"
         transform="matrix(0.23647361,0,0,-0.23647361,155.9245,167.04958)"
         clip-path="none" /><path
         d="m 0,0 h 17.225 c 2.384,0 4.281,-0.615 5.633,-1.829 1.342,-1.203 2.022,-3.015 2.022,-5.386 v -4.84 c 0,-2.372 -0.68,-4.184 -2.022,-5.385 -1.35,-1.214 -3.246,-1.83 -5.633,-1.83 L 0,-19.27 Z m 36.471,8.333 c -2.045,2.155 -4.548,3.869 -7.44,5.093 -2.893,1.223 -6.2,1.844 -9.827,1.844 H -17.471 V -62.259 H 0 v 27.719 h 19.204 c 3.627,0 6.934,0.621 9.827,1.845 2.895,1.225 5.398,2.938 7.44,5.092 2.043,2.154 3.643,4.788 4.757,7.83 1.109,3.033 1.671,6.444 1.671,10.139 0,3.619 -0.562,7.011 -1.671,10.082 -1.114,3.076 -2.713,5.73 -4.757,7.885"
         style="fill:#ffffff;fill-opacity:1;fill-rule:nonzero;stroke:none"
         id="path1795"
         transform="matrix(0.23647361,0,0,-0.23647361,172.32846,167.33571)"
         clip-path="none" /><path
         d="m 0,0 -0.155,-0.417 c -1.148,-3.082 -2.946,-5.753 -5.346,-7.938 -2.375,-2.162 -5.602,-3.257 -9.593,-3.257 -4.782,0 -8.669,1.569 -11.551,4.665 -2.889,3.103 -4.354,7.699 -4.354,13.659 v 12.32 c 0,5.96 1.465,10.556 4.354,13.659 2.882,3.097 6.769,4.667 11.551,4.667 4.064,0 7.18,-0.949 9.264,-2.819 2.101,-1.89 3.676,-4.443 4.679,-7.59 l 0.134,-0.425 15.121,7.849 -0.146,0.322 c -2.806,6.274 -6.592,10.937 -11.253,13.86 -4.66,2.922 -10.648,4.403 -17.799,4.403 -5.232,0 -10.019,-0.898 -14.225,-2.67 -4.218,-1.776 -7.854,-4.419 -10.809,-7.856 C -43.081,39 -45.4,34.7 -47.021,29.652 c -1.618,-5.034 -2.438,-10.865 -2.438,-17.33 0,-6.539 0.82,-12.334 2.438,-17.222 1.622,-4.905 3.943,-9.058 6.898,-12.343 2.956,-3.29 6.593,-5.803 10.811,-7.468 4.204,-1.66 8.988,-2.501 14.218,-2.501 7.157,0 13.168,1.631 17.866,4.85 4.691,3.214 8.527,7.833 11.401,13.73 l 0.153,0.314 z"
         style="fill:#ffffff;fill-opacity:1;fill-rule:nonzero;stroke:none"
         id="path1799"
         transform="matrix(0.23647361,0,0,-0.23647361,195.87837,175.93559)"
         clip-path="none" /><path
         d="m 138.62457,120.47283 -2.71974,-3.17168 1.45585,-1.24834 c 4.7162,-4.04329 11.56233,-4.04352 16.279,-6.9e-4 l 1.43635,1.23139 -2.71951,3.17214 -1.43635,-1.23139 c -3.14058,-2.69259 -7.6994,-2.69166 -10.83998,2.3e-4 z"
         style="fill:#ffffff;fill-opacity:1;fill-rule:nonzero;stroke:none;stroke-width:0.232119"
         id="path1803" /><path
         d="m 135.90134,148.00618 -14.92667,-12.7979 14.92249,-12.79419 2.71951,3.17214 -11.22274,9.62205 11.22692,9.62622 z"
         style="fill:#ffffff;fill-opacity:1;fill-rule:nonzero;stroke:none;stroke-width:0.232119"
         id="path1807" /><path
         d="m 145.50052,157.39706 c -2.89105,0 -5.7814,-1.01065 -8.13973,-3.03287 l -1.454,-1.24648 2.71951,-3.17215 1.454,1.24672 c 3.14058,2.69281 7.69917,2.69281 10.83998,4.6e-4 l 1.43101,-1.22721 2.71951,3.17214 -1.43125,1.22721 c -2.35786,2.0213 -5.24868,3.03218 -8.13903,3.03218"
         style="fill:#ffffff;fill-opacity:1;fill-rule:nonzero;stroke:none;stroke-width:0.232119"
         id="path1811" /><path
         d="m 155.08067,148.02273 -2.71928,-3.17214 11.24735,-9.64224 -11.24247,-9.6376 2.71927,-3.17238 14.94269,12.80998 z"
         style="fill:#ffffff;fill-opacity:1;fill-rule:nonzero;stroke:none;stroke-width:0.232119"
         id="path1815" /><g
         id="g1817"
         transform="matrix(0.23211939,0,0,-0.23211939,153.39349,135.20856)"
         style="fill:#ffffff;stroke:none"
         clip-path="none"><path
           d="m 0,0 c 0,-18.777 -15.223,-34 -34,-34 -18.778,0 -34,15.223 -34,34 0,18.778 15.222,34 34,34 C -15.223,34 0,18.778 0,0"
           style="fill:#ffffff;fill-opacity:1;fill-rule:nonzero;stroke:none"
           id="path1819" /></g><g
         aria-label="COMMUNITY"
         id="text8355"
         style="font-style:italic;font-weight:bold;font-size:11.2357px;line-height:1ex;font-family:Kohelet;-inkscape-font-specification:'Kohelet Bold Italic';font-variant-ligatures:no-common-ligatures;text-align:center;letter-spacing:0px;word-spacing:0px;text-anchor:middle;fill:none;stroke:#000000;stroke-width:0.0747595px"><path
           d="m 114.68542,200.18392 q -0.79773,0 -1.43817,-0.24719 -0.64043,-0.25842 -1.08986,-0.75279 -0.44943,-0.50561 -0.69662,-1.24716 -0.24718,-0.7528 -0.24718,-1.75277 0,-0.98874 0.24718,-1.75277 0.24719,-0.77527 0.69662,-1.29211 0.44943,-0.52808 1.08986,-0.79773 0.64044,-0.26966 1.43817,-0.26966 1.08986,0 1.79771,0.44943 0.70785,0.43819 1.13481,1.39323 l -1.47188,0.76402 q -0.1573,-0.49437 -0.49437,-0.7865 -0.32583,-0.30336 -0.96627,-0.30336 -0.75279,0 -1.21345,0.49437 -0.44943,0.48314 -0.44943,1.4157 v 1.2584 q 0,0.93256 0.44943,1.42693 0.46066,0.48314 1.21345,0.48314 0.6292,0 0.99998,-0.33707 0.38201,-0.34831 0.56178,-0.83145 l 1.39323,0.80897 q -0.43819,0.89886 -1.15728,1.39323 -0.70785,0.48314 -1.79771,0.48314 z"
           style="font-family:'IBM Plex Sans';-inkscape-font-specification:'IBM Plex Sans Bold Italic';fill:#ffffff;stroke:none"
           id="path305" /><path
           d="m 121.83131,200.18392 q -0.77526,0 -1.4157,-0.25843 -0.64043,-0.25842 -1.08986,-0.76402 -0.44943,-0.51684 -0.69661,-1.26964 -0.24719,-0.76402 -0.24719,-1.764 0,-0.99998 0.24719,-1.75277 0.24718,-0.76403 0.69661,-1.26963 0.44943,-0.51685 1.08986,-0.77527 0.64044,-0.25842 1.4157,-0.25842 0.77526,0 1.4157,0.25842 0.64043,0.25842 1.08986,0.77527 0.44943,0.5056 0.69661,1.26963 0.24719,0.75279 0.24719,1.75277 0,0.99998 -0.24719,1.764 -0.24718,0.7528 -0.69661,1.26964 -0.44943,0.5056 -1.08986,0.76402 -0.64044,0.25843 -1.4157,0.25843 z m 0,-1.51682 q 0.77526,0 1.20222,-0.50561 0.43819,-0.50561 0.43819,-1.44941 v -1.16851 q 0,-0.9438 -0.43819,-1.4494 -0.42696,-0.50561 -1.20222,-0.50561 -0.77526,0 -1.21346,0.50561 -0.42695,0.5056 -0.42695,1.4494 v 1.16851 q 0,0.9438 0.42695,1.44941 0.4382,0.50561 1.21346,0.50561 z"
           style="font-family:'IBM Plex Sans';-inkscape-font-specification:'IBM Plex Sans Bold Italic';fill:#ffffff;stroke:none"
           id="path307" /><path
           d="m 132.57262,194.90314 h -0.0337 l -0.57302,1.14604 -1.52806,2.77522 -1.49435,-2.76399 -0.59549,-1.23592 h -0.0337 v 5.2246 h -1.6067 v -7.84252 h 1.80895 l 1.9213,3.67407 h 0.0225 l 1.89884,-3.67407 h 1.82018 v 7.84252 h -1.60671 z"
           style="font-family:'IBM Plex Sans';-inkscape-font-specification:'IBM Plex Sans Bold Italic';fill:#ffffff;stroke:none"
           id="path309" /><path
           d="m 141.77464,194.90314 h -0.0337 l -0.57302,1.14604 -1.52806,2.77522 -1.49435,-2.76399 -0.59549,-1.23592 h -0.0337 v 5.2246 h -1.6067 v -7.84252 h 1.80895 l 1.9213,3.67407 h 0.0225 l 1.89884,-3.67407 h 1.82018 v 7.84252 h -1.60671 z"
           style="font-family:'IBM Plex Sans';-inkscape-font-specification:'IBM Plex Sans Bold Italic';fill:#ffffff;stroke:none"
           id="path311" /><path
           d="m 146.72957,192.20657 v 4.80888 q 0,0.83144 0.32584,1.24716 0.32583,0.40449 1.08986,0.40449 0.76403,0 1.08986,-0.40449 0.32584,-0.41572 0.32584,-1.24716 v -4.80888 h 1.66288 v 4.62911 q 0,0.86515 -0.16853,1.50558 -0.1573,0.6292 -0.52808,1.04492 -0.37078,0.40449 -0.95504,0.60673 -0.58425,0.19101 -1.42693,0.19101 -0.84268,0 -1.42693,-0.19101 -0.58426,-0.20224 -0.95504,-0.60673 -0.37078,-0.41572 -0.53931,-1.04492 -0.1573,-0.64043 -0.1573,-1.50558 v -4.62911 z"
           style="font-family:'IBM Plex Sans';-inkscape-font-specification:'IBM Plex Sans Bold Italic';fill:#ffffff;stroke:none"
           id="path313" /><path
           d="m 155.30239,196.34131 -0.75279,-1.573 h -0.0337 v 5.28078 h -1.60671 v -7.84252 h 1.86513 l 2.14602,3.70778 0.75279,1.573 h 0.0337 v -5.28078 h 1.6067 v 7.84252 h -1.86512 z"
           style="font-family:'IBM Plex Sans';-inkscape-font-specification:'IBM Plex Sans Bold Italic';fill:#ffffff;stroke:none"
           id="path315" /><path
           d="m 160.74046,200.04909 v -1.35952 h 1.01121 v -5.12348 h -1.01121 v -1.35952 h 3.73025 v 1.35952 h -1.01121 v 5.12348 h 1.01121 v 1.35952 z"
           style="font-family:'IBM Plex Sans';-inkscape-font-specification:'IBM Plex Sans Bold Italic';fill:#ffffff;stroke:none"
           id="path317" /><path
           d="m 169.12226,193.72339 v 6.3257 h -1.70782 v -6.3257 h -2.12355 v -1.51682 h 5.95492 v 1.51682 z"
           style="font-family:'IBM Plex Sans';-inkscape-font-specification:'IBM Plex Sans Bold Italic';fill:#ffffff;stroke:none"
           id="path319" /><path
           d="m 174.36931,200.04909 v -3.06735 l -2.68533,-4.77517 h 1.91007 l 1.68535,3.12352 h 0.0225 l 1.61794,-3.12352 h 1.8539 l -2.68534,4.76394 v 3.07858 z"
           style="font-family:'IBM Plex Sans';-inkscape-font-specification:'IBM Plex Sans Bold Italic';fill:#ffffff;stroke:none"
           id="path321" /></g></g></g></svg>
