<?xml version="1.0" encoding="UTF-8" standalone="no"?>
<svg
   viewBox="0 0 122.88 113.38"
   fill="#0d6efd"
   version="1.1"
   id="svg4"
   sodipodi:docname="soc.svg"
   inkscape:version="1.2.1 (9c6d41e410, 2022-07-14)"
   xmlns:inkscape="http://www.inkscape.org/namespaces/inkscape"
   xmlns:sodipodi="http://sodipodi.sourceforge.net/DTD/sodipodi-0.dtd"
   xmlns="http://www.w3.org/2000/svg"
   xmlns:svg="http://www.w3.org/2000/svg">
  <defs
     id="defs8" />
  <sodipodi:namedview
     id="namedview6"
     pagecolor="#ffffff"
     bordercolor="#666666"
     borderopacity="1.0"
     inkscape:showpageshadow="2"
     inkscape:pageopacity="0.0"
     inkscape:pagecheckerboard="0"
     inkscape:deskcolor="#d1d1d1"
     showgrid="false"
     inkscape:zoom="2.0814959"
     inkscape:cx="35.551355"
     inkscape:cy="56.93021"
     inkscape:window-width="1440"
     inkscape:window-height="851"
     inkscape:window-x="0"
     inkscape:window-y="26"
     inkscape:window-maximized="1"
     inkscape:current-layer="svg4" />
  <path
     d="m 34.64,20.09 h 53.6 c 3.665355,0.0036 7.178015,1.468425 9.76,4.07 v 0 c 2.59849,2.587332 4.05948,6.103061 4.06,9.77 v 45.53 c -0.022,7.623457 -6.196543,13.79803 -13.82,13.82 H 34.64 C 27.012639,93.263522 20.831995,87.087348 20.81,79.46 V 33.92 c 0.0025,-3.660668 1.463614,-7.169442 4.06,-9.75 v 0 c 2.584079,-2.589916 6.091432,-4.046817 9.75,-4.05 z m 74.63,40.82 v 7.39 c 0.005,0.759885 0.62011,1.374553 1.38,1.38 h 10.85 c 0.75989,-0.0054 1.37455,-0.620115 1.38,-1.38 v -7.39 c 0,-0.762153 -0.61785,-1.38 -1.38,-1.38 h -10.85 c -0.76215,0 -1.38,0.617847 -1.38,1.38 z m 0,-16.95 v 7.38 c 0,0.762153 0.61785,1.38 1.38,1.38 h 10.85 c 0.76215,0 1.38,-0.617847 1.38,-1.38 V 44 c 0,-0.762153 -0.61785,-1.38 -1.38,-1.38 h -10.85 c -0.76215,0 -1.38,0.617847 -1.38,1.38 z m 0,33.91 v 7.38 c 0,0.762153 0.61785,1.38 1.38,1.38 h 10.85 c 0.76215,0 1.38,-0.617847 1.38,-1.38 v -7.38 c 0,-0.762153 -0.61785,-1.38 -1.38,-1.38 h -10.85 c -0.76215,0 -1.38,0.617847 -1.38,1.38 z m 0,-50.87 v 7.39 c 0,0.762153 0.61785,1.38 1.38,1.38 h 10.85 c 0.76215,0 1.38,-0.617847 1.38,-1.38 V 27 c -0.005,-0.759885 -0.62011,-1.374553 -1.38,-1.38 h -10.85 c -0.75989,0.0054 -1.37455,0.620115 -1.38,1.38 z M 13.61,60.91 v 7.39 c -0.0054,0.759885 -0.620115,1.374553 -1.38,1.38 H 1.38 C 0.62011488,69.674553 0.00544741,69.059885 0,68.3 v -7.39 c 0,-0.762153 0.61784705,-1.38 1.38,-1.38 h 10.85 c 0.762153,0 1.38,0.617847 1.38,1.38 z m 0,-16.95 v 7.38 c 0,0.762153 -0.617847,1.38 -1.38,1.38 H 1.38 C 0.61784705,52.72 0,52.102153 0,51.34 V 44 c 0,-0.762153 0.61784705,-1.38 1.38,-1.38 h 10.85 c 0.762153,0 1.38,0.617847 1.38,1.38 z m 0,33.91 v 7.38 c 0,0.762153 -0.617847,1.38 -1.38,1.38 H 1.38 C 0.61784705,86.63 0,86.012153 0,85.25 v -7.38 c 0,-0.762153 0.61784705,-1.38 1.38,-1.38 h 10.85 c 0.762153,0 1.38,0.617847 1.38,1.38 z m 0,-50.87 v 7.39 c 0,0.762153 -0.617847,1.38 -1.38,1.38 H 1.38 C 0.61784705,35.77 0,35.152153 0,34.39 V 27 c 0.00544741,-0.759885 0.62011488,-1.374553 1.38,-1.38 h 10.85 c 0.759885,0.0054 1.374553,0.620115 1.38,1.38 z m 69.57,72.77 h 7.38 c 0.762153,0 1.38,0.61785 1.38,1.38 V 112 c 0,0.76215 -0.617847,1.38 -1.38,1.38 h -7.38 c -0.762153,0 -1.38,-0.61785 -1.38,-1.38 v -10.85 c 0,-0.76215 0.617847,-1.38 1.38,-1.38 z m -17,0 h 7.39 c 0.781601,-0.02834 1.430514,0.59789 1.43,1.38 V 112 c 0,0.76215 -0.617847,1.38 -1.38,1.38 h -7.4 c -0.759885,-0.005 -1.374553,-0.62011 -1.38,-1.38 v -10.85 c 0.0054,-0.75989 0.620115,-1.374553 1.38,-1.38 z m -16.95,0 h 7.38 c 0.763787,-2e-5 1.384505,0.61623 1.39,1.38 V 112 c -0.0055,0.76377 -0.626213,1.38002 -1.39,1.38 h -7.34 c -0.762153,0 -1.38,-0.61785 -1.38,-1.38 v -10.85 c 0,-0.76215 0.617847,-1.38 1.38,-1.38 z m -17,0 h 7.47 c 0.762153,0 1.38,0.61785 1.38,1.38 V 112 c 0,0.76215 -0.617847,1.38 -1.38,1.38 h -7.38 c -0.762153,0 -1.38,-0.61785 -1.38,-1.38 v -10.85 c 0,-0.76215 0.617847,-1.38 1.38,-1.38 z M 83.18,0 h 7.38 c 0.762153,0 1.38,0.61784705 1.38,1.38 v 10.85 c 0,0.762153 -0.617847,1.38 -1.38,1.38 h -7.38 c -0.762153,0 -1.38,-0.617847 -1.38,-1.38 V 1.38 C 81.8,0.61784705 82.417847,0 83.18,0 Z m -17,0 h 7.39 c 0.781601,-0.02833764 1.430514,0.59788592 1.43,1.38 v 10.85 c 0,0.762153 -0.617847,1.38 -1.38,1.38 h -7.4 c -0.759885,-0.0054 -1.374553,-0.620115 -1.38,-1.38 V 1.38 C 64.845447,0.62011488 65.460115,0.00544741 66.22,0 Z M 49.27,0 h 7.38 c 0.748145,0.02152105 1.344925,0.63156264 1.35,1.38 v 10.85 c -0.0055,0.763768 -0.626213,1.38002 -1.39,1.38 h -7.34 c -0.762153,0 -1.38,-0.617847 -1.38,-1.38 V 1.38 C 47.89,0.61784705 48.507847,0 49.27,0 Z m -17,0 h 7.43 c 0.762153,0 1.38,0.61784705 1.38,1.38 v 10.85 c 0,0.762153 -0.617847,1.38 -1.38,1.38 h -7.38 c -0.762153,0 -1.38,-0.617847 -1.38,-1.38 V 1.38 C 30.94,0.61784705 31.557847,0 32.32,0 Z m 55.97,27 h -53.6 c -1.821478,-0.006 -3.570344,0.713686 -4.86,2 v 0 c -1.286314,1.289656 -2.006012,3.038522 -2,4.86 v 45.6 c 0.0273,3.792249 3.097715,6.858209 6.89,6.88 h 53.6 c 3.792285,-0.02179 6.862701,-3.087751 6.89,-6.88 V 33.92 c 0.0027,-1.820829 -0.716486,-3.568482 -2,-4.86 v 0 c -1.289656,-1.286314 -3.038522,-2.006012 -4.86,-2 z"
     id="path2"
     sodipodi:nodetypes="ccssccccccssccsccccsssscsssssssccssssssssscssssccccsccccsssscsssssssccssssssssscssssccccssssssssscccssccccccccccssscccsssssssccssssssssscccsscccccsccccsssscsssssssccccssccccccsscc" />
</svg>
