<svg viewBox="0 0 122.88 73.17" xmlns="http://www.w3.org/2000/svg">
  <path fill="#666666" d="M109.58,62.92V52.81h10.08a3.23,3.23,0,0,0,3.22-3.22v-26a3.24,3.24,0,0,0-3.22-3.22H109.58V10.25a10.21,10.21,0,0,0-3-7.24l-.2-.18a10.19,10.19,0,0,0-7-2.83H10.25A10.28,10.28,0,0,0,0,10.25V62.92a10.19,10.19,0,0,0,3,7.23H3a10.21,10.21,0,0,0,7.24,3H99.33a10.28,10.28,0,0,0,10.25-10.25Zm-6-52.67V62.92a4.23,4.23,0,0,1-4.21,4.21H10.25a4.19,4.19,0,0,1-3-1.24h0a4.21,4.21,0,0,1-1.23-3V10.25A4.23,4.23,0,0,1,10.25,6H99.33a4.2,4.2,0,0,1,2.86,1.12l.11.12a4.21,4.21,0,0,1,1.24,3Z" />
  <path fill="#f9f9f9" d="M36.05,60.56V12.39H15.23A2.64,2.64,0,0,0,12.62,15V58a2.61,2.61,0,0,0,2.61,2.6Z"/>
  <polygon fill="#f9f9f9" points="43.82 60.56 66.73 60.56 66.73 12.39 43.82 12.39 43.82 60.56 43.82 60.56"/>
  <path fill="#f9f9f9" d="M74.25,60.56H94.57a2.63,2.63,0,0,0,2.6-2.6V15a2.66,2.66,0,0,0-2.6-2.61H74.25V60.56Z"/>
</svg>
