<svg width="512" height="512" viewBox="0 0 5.3333333 5.3333333" version="1.1" xmlns="http://www.w3.org/2000/svg">
<g transform="matrix(7.9999571,0,0,7.9999571,-61.682466,-3.0996842)">
<path style="fill:#f7931a;stroke-width:0.0104167" d="M 8.3670064,0.80143769 C 8.3224959,0.98001067 8.1416209,1.0886774 7.9630271,1.0441565 7.7845062,0.99963567 7.6758291,0.81876061 7.7203707,0.64019806 7.7648708,0.46160425 7.9457354,0.35291672 8.1242771,0.39743756 8.3028605,0.44195841 8.4115272,0.6228543 8.3670064,0.80143769 Z"/>
<path style="fill:#ffffff;stroke-width:0.0104167" d="m 8.1906521,0.67331265 c 0.00664,-0.0443542 -0.027135,-0.0681979 -0.073313,-0.0841042 l 0.014979,-0.0600834 -0.036583,-0.009115 -0.014583,0.0585 c -0.0096,-0.002396 -0.01949,-0.004656 -0.029292,-0.006896 l 0.014687,-0.0588854 -0.036552,-0.009115 -0.01499,0.0600625 c -0.00796,-0.001812 -0.015771,-0.003604 -0.023354,-0.00549 l 4.16e-5,-1.875e-4 -0.050438,-0.0125938 -0.00973,0.0390625 c 0,0 0.027135,0.006219 0.026562,0.006604 0.014812,0.003698 0.01749,0.0135 0.017042,0.0212708 l -0.017062,0.0684479 c 0.00102,2.6042e-4 0.00234,6.3542e-4 0.0038,0.001219 -0.00122,-3.0208e-4 -0.00252,-6.3542e-4 -0.00386,-9.5833e-4 l -0.023917,0.0958854 c -0.00181,0.0045 -0.00641,0.01125 -0.016761,0.008688 3.646e-4,5.3125e-4 -0.026583,-0.006635 -0.026583,-0.006635 l -0.018156,0.041875 0.047594,0.0118646 c 0.00886,0.002219 0.017542,0.004542 0.026073,0.006729 l -0.015135,0.0607813 0.036531,0.009115 0.01499,-0.060125 c 0.00998,0.002708 0.019667,0.005208 0.029146,0.007563 l -0.014938,0.0598438 0.036573,0.009115 0.015135,-0.0606563 c 0.062365,0.0118021 0.1092605,0.007042 0.1289897,-0.0493542 0.015906,-0.0454167 -7.813e-4,-0.0716146 -0.033594,-0.0887084 0.023896,-0.005531 0.041896,-0.02125 0.046698,-0.0537193 z M 8.1071,0.79048977 c -0.011313,0.0454167 -0.087771,0.020875 -0.1125729,0.0147083 l 0.020083,-0.0805104 c 0.024792,0.006188 0.1042813,0.0184375 0.09249,0.0658021 z M 8.1184021,0.6726564 c -0.010313,0.0413125 -0.073969,0.0203229 -0.094615,0.0151771 l 0.018208,-0.0730209 c 0.020656,0.005146 0.087156,0.01475 0.076407,0.0578438 z"/>
</g>
</svg>
