<svg width="512" height="512" viewBox="0 0 5.3333333 5.3333333" version="1.1" id="svg5" xmlns="http://www.w3.org/2000/svg">
<g transform="matrix(0.01066667,0,0,0.01066667,-2.6666675,-2.6666675)">
<circle style="fill:#0088cc" cx="500" cy="500" r="250" id="circle296" />
<path style="clip-rule:evenodd;fill:#ffffff;fill-rule:evenodd" d="m 430.357,415.179 h 140.179 c 5.357,0 9.821,0.893 15.179,3.571 6.25,2.679 9.821,7.143 11.607,10.714 0,0 0,0.893 0.893,0.893 2.679,4.464 4.464,9.821 4.464,16.071 0,5.357 -0.893,10.714 -4.464,16.071 v 0 l -88.393,151.786 c -1.786,3.571 -5.357,5.357 -9.821,5.357 -3.571,0 -7.143,-1.786 -9.821,-5.357 L 403.571,462.5 v 0 c -1.786,-3.571 -5.357,-8.036 -5.357,-15.179 -0.893,-6.25 0.893,-11.607 3.571,-16.964 2.679,-5.357 7.143,-9.821 13.393,-11.607 5.358,-3.571 11.608,-3.571 15.179,-3.571 z m 58.929,21.428 h -58.929 c -3.571,0 -5.357,0 -6.25,0.893 -1.786,0.893 -2.679,1.786 -3.571,3.571 -0.893,0.893 -0.893,2.679 -0.893,4.464 0,0.893 0.893,1.786 2.679,5.357 v 0 l 66.964,116.071 z m 21.428,0 v 131.25 l 67.857,-116.964 c 0.893,-1.786 0.893,-3.571 0.893,-5.357 0,-1.786 0,-3.571 -0.893,-4.464 -0.893,-0.893 -0.893,-1.786 -1.786,-1.786 l -0.893,-0.893 c -1.786,-0.893 -3.571,-0.893 -6.25,-0.893 h -58.929 v -0.893 z"/>
</g>
</svg>
